<svg width="202" height="50" viewBox="0 0 202 50" fill="none" xmlns="http://www.w3.org/2000/svg">
<path d="M36.2884 20.0163L29.5411 19.2238L26.7459 13.0822C26.102 11.6469 23.9086 11.6152 23.2758 13.1317L20.4805 19.2734L13.7333 20.0658C12.0701 20.2798 11.379 22.4244 12.673 23.5329L17.6371 28.0895L16.2876 34.6274C15.9902 36.1573 17.4732 37.5838 19.0829 36.7571L25.0108 33.3892L30.9388 36.7076C32.5181 37.5179 34.1264 36.089 33.7341 34.5774L32.3846 28.04L37.3487 23.4833C38.5839 22.3199 37.969 20.2317 36.2884 20.0163ZM30.3123 27.2971L31.8545 34.9741L25.0108 31.1603L18.1672 35.0236L19.7094 27.2971L13.9261 21.9975L21.7336 21.1059L25.0108 13.9737L28.2881 21.1059L36.0956 21.9975L30.3123 27.2971Z" fill="white" fill-opacity="0.9"/>
<path d="M36.2948 19.9667L36.2942 19.9666L29.575 19.1775L26.7915 13.0618C26.7914 13.0617 26.7914 13.0616 26.7914 13.0616C26.1303 11.5882 23.8807 11.554 23.23 13.1118L20.4467 19.227L13.7275 20.0162L13.7269 20.0162C12.023 20.2354 11.3122 22.4321 12.6398 23.5703C12.64 23.5705 12.6403 23.5706 12.6405 23.5708L17.5824 28.1072L16.2386 34.6173L16.2385 34.6178C16.0863 35.4012 16.3897 36.1586 16.9381 36.6144C17.488 37.0715 18.2827 37.2243 19.1057 36.8016L19.1058 36.8017L19.1076 36.8006L25.011 33.4466L30.9144 36.7512L30.9144 36.7513L30.916 36.7521C32.5339 37.5822 34.1846 36.1183 33.7828 34.566L32.4393 28.0577L37.3825 23.5202L37.383 23.5197C38.6465 22.3296 38.0204 20.1879 36.2948 19.9667ZM30.2785 27.2602L30.2577 27.2793L30.2632 27.3069L31.7841 34.8776L25.0352 31.1167L25.0107 31.103L24.9863 31.1168L18.2376 34.9265L19.7585 27.3069L19.764 27.2792L19.7432 27.2602L14.0407 22.0347L21.7393 21.1556L21.7673 21.1524L21.779 21.1268L25.0108 14.0935L28.2426 21.1268L28.2544 21.1524L28.2824 21.1556L35.981 22.0347L30.2785 27.2602Z" stroke="white" stroke-opacity="0.9" stroke-width="0.1"/>
<path d="M90.8447 14.1719V35.5H87.168V14.1719H90.8447ZM99.5459 23.5029V26.418H89.9072V23.5029H99.5459ZM100.762 14.1719V17.1016H89.9072V14.1719H100.762ZM110.005 35.793C108.833 35.793 107.773 35.6025 106.826 35.2217C105.889 34.8311 105.088 34.2891 104.424 33.5957C103.77 32.9023 103.267 32.0869 102.915 31.1494C102.563 30.2119 102.388 29.2012 102.388 28.1172V27.5312C102.388 26.291 102.568 25.168 102.93 24.1621C103.291 23.1562 103.794 22.2969 104.438 21.584C105.083 20.8613 105.845 20.3096 106.724 19.9287C107.603 19.5479 108.555 19.3574 109.58 19.3574C110.713 19.3574 111.704 19.5479 112.554 19.9287C113.403 20.3096 114.106 20.8467 114.663 21.54C115.229 22.2236 115.649 23.0391 115.923 23.9863C116.206 24.9336 116.348 25.9785 116.348 27.1211V28.6299H104.102V26.0957H112.861V25.8174C112.842 25.1826 112.715 24.5869 112.48 24.0303C112.256 23.4736 111.909 23.0244 111.44 22.6826C110.972 22.3408 110.347 22.1699 109.565 22.1699C108.979 22.1699 108.457 22.2969 107.998 22.5508C107.549 22.7949 107.173 23.1514 106.87 23.6201C106.567 24.0889 106.333 24.6553 106.167 25.3193C106.011 25.9736 105.933 26.7109 105.933 27.5312V28.1172C105.933 28.8105 106.025 29.4551 106.211 30.0508C106.406 30.6367 106.689 31.1494 107.061 31.5889C107.432 32.0283 107.881 32.375 108.408 32.6289C108.936 32.873 109.536 32.9951 110.21 32.9951C111.06 32.9951 111.816 32.8242 112.48 32.4824C113.145 32.1406 113.721 31.6572 114.209 31.0322L116.069 32.834C115.728 33.332 115.283 33.8105 114.736 34.2695C114.189 34.7188 113.521 35.085 112.729 35.3682C111.948 35.6514 111.04 35.793 110.005 35.793ZM128.037 32.3213V24.7627C128.037 24.1963 127.935 23.708 127.729 23.2979C127.524 22.8877 127.212 22.5703 126.792 22.3457C126.382 22.1211 125.864 22.0088 125.239 22.0088C124.663 22.0088 124.165 22.1064 123.745 22.3018C123.325 22.4971 122.998 22.7607 122.764 23.0928C122.529 23.4248 122.412 23.8008 122.412 24.2207H118.896C118.896 23.5957 119.048 22.9902 119.351 22.4043C119.653 21.8184 120.093 21.2959 120.669 20.8369C121.245 20.3779 121.934 20.0166 122.734 19.7529C123.535 19.4893 124.434 19.3574 125.43 19.3574C126.621 19.3574 127.676 19.5576 128.594 19.958C129.521 20.3584 130.249 20.9639 130.776 21.7744C131.313 22.5752 131.582 23.5811 131.582 24.792V31.8379C131.582 32.5605 131.631 33.21 131.729 33.7861C131.836 34.3525 131.987 34.8457 132.183 35.2656V35.5H128.564C128.398 35.1191 128.267 34.6357 128.169 34.0498C128.081 33.4541 128.037 32.8779 128.037 32.3213ZM128.55 25.8613L128.579 28.0439H126.045C125.391 28.0439 124.814 28.1074 124.316 28.2344C123.818 28.3516 123.403 28.5273 123.071 28.7617C122.739 28.9961 122.49 29.2793 122.324 29.6113C122.158 29.9434 122.075 30.3193 122.075 30.7393C122.075 31.1592 122.173 31.5449 122.368 31.8965C122.563 32.2383 122.847 32.5068 123.218 32.7021C123.599 32.8975 124.058 32.9951 124.595 32.9951C125.317 32.9951 125.947 32.8486 126.484 32.5557C127.031 32.2529 127.461 31.8867 127.773 31.457C128.086 31.0176 128.252 30.6025 128.271 30.2119L129.414 31.7793C129.297 32.1797 129.097 32.6094 128.813 33.0684C128.53 33.5273 128.159 33.9668 127.7 34.3867C127.251 34.7969 126.709 35.1338 126.074 35.3975C125.449 35.6611 124.727 35.793 123.906 35.793C122.871 35.793 121.948 35.5879 121.138 35.1777C120.327 34.7578 119.692 34.1963 119.233 33.4932C118.774 32.7803 118.545 31.9746 118.545 31.0762C118.545 30.2363 118.701 29.4941 119.014 28.8496C119.336 28.1953 119.805 27.6484 120.42 27.209C121.045 26.7695 121.807 26.4375 122.705 26.2129C123.604 25.9785 124.629 25.8613 125.781 25.8613H128.55ZM142.539 19.6504V22.2285H133.604V19.6504H142.539ZM136.182 15.7686H139.712V31.1201C139.712 31.6084 139.78 31.9844 139.917 32.248C140.063 32.502 140.264 32.6729 140.518 32.7607C140.771 32.8486 141.069 32.8926 141.411 32.8926C141.655 32.8926 141.89 32.8779 142.114 32.8486C142.339 32.8193 142.52 32.79 142.656 32.7607L142.671 35.4561C142.378 35.5439 142.036 35.6221 141.646 35.6904C141.265 35.7588 140.825 35.793 140.327 35.793C139.517 35.793 138.799 35.6514 138.174 35.3682C137.549 35.0752 137.061 34.6016 136.709 33.9473C136.357 33.293 136.182 32.4238 136.182 31.3398V15.7686ZM154.8 31.7646V19.6504H158.345V35.5H155.005L154.8 31.7646ZM155.298 28.4688L156.484 28.4395C156.484 29.5039 156.367 30.4854 156.133 31.3838C155.898 32.2725 155.537 33.0488 155.049 33.7129C154.561 34.3672 153.936 34.8799 153.174 35.251C152.412 35.6123 151.499 35.793 150.435 35.793C149.663 35.793 148.955 35.6807 148.311 35.4561C147.666 35.2314 147.109 34.8848 146.641 34.416C146.182 33.9473 145.825 33.3369 145.571 32.585C145.317 31.833 145.19 30.9346 145.19 29.8896V19.6504H148.721V29.9189C148.721 30.4951 148.789 30.9785 148.926 31.3691C149.062 31.75 149.248 32.0576 149.482 32.292C149.717 32.5264 149.99 32.6924 150.303 32.79C150.615 32.8877 150.947 32.9365 151.299 32.9365C152.305 32.9365 153.096 32.7412 153.672 32.3506C154.258 31.9502 154.673 31.4131 154.917 30.7393C155.171 30.0654 155.298 29.3086 155.298 28.4688ZM165.508 22.668V35.5H161.978V19.6504H165.347L165.508 22.668ZM170.356 19.5479L170.327 22.8291C170.112 22.79 169.878 22.7607 169.624 22.7412C169.38 22.7217 169.136 22.7119 168.892 22.7119C168.286 22.7119 167.754 22.7998 167.295 22.9756C166.836 23.1416 166.45 23.3857 166.138 23.708C165.835 24.0205 165.601 24.4014 165.435 24.8506C165.269 25.2998 165.171 25.8027 165.142 26.3594L164.336 26.418C164.336 25.4219 164.434 24.499 164.629 23.6494C164.824 22.7998 165.117 22.0527 165.508 21.4082C165.908 20.7637 166.406 20.2607 167.002 19.8994C167.607 19.5381 168.306 19.3574 169.097 19.3574C169.312 19.3574 169.541 19.377 169.785 19.416C170.039 19.4551 170.229 19.499 170.356 19.5479ZM179.263 35.793C178.091 35.793 177.031 35.6025 176.084 35.2217C175.146 34.8311 174.346 34.2891 173.682 33.5957C173.027 32.9023 172.524 32.0869 172.173 31.1494C171.821 30.2119 171.646 29.2012 171.646 28.1172V27.5312C171.646 26.291 171.826 25.168 172.188 24.1621C172.549 23.1562 173.052 22.2969 173.696 21.584C174.341 20.8613 175.103 20.3096 175.981 19.9287C176.86 19.5479 177.812 19.3574 178.838 19.3574C179.971 19.3574 180.962 19.5479 181.812 19.9287C182.661 20.3096 183.364 20.8467 183.921 21.54C184.487 22.2236 184.907 23.0391 185.181 23.9863C185.464 24.9336 185.605 25.9785 185.605 27.1211V28.6299H173.359V26.0957H182.119V25.8174C182.1 25.1826 181.973 24.5869 181.738 24.0303C181.514 23.4736 181.167 23.0244 180.698 22.6826C180.229 22.3408 179.604 22.1699 178.823 22.1699C178.237 22.1699 177.715 22.2969 177.256 22.5508C176.807 22.7949 176.431 23.1514 176.128 23.6201C175.825 24.0889 175.591 24.6553 175.425 25.3193C175.269 25.9736 175.19 26.7109 175.19 27.5312V28.1172C175.19 28.8105 175.283 29.4551 175.469 30.0508C175.664 30.6367 175.947 31.1494 176.318 31.5889C176.689 32.0283 177.139 32.375 177.666 32.6289C178.193 32.873 178.794 32.9951 179.468 32.9951C180.317 32.9951 181.074 32.8242 181.738 32.4824C182.402 32.1406 182.979 31.6572 183.467 31.0322L185.327 32.834C184.985 33.332 184.541 33.8105 183.994 34.2695C183.447 34.7188 182.778 35.085 181.987 35.3682C181.206 35.6514 180.298 35.793 179.263 35.793ZM197.251 31.208C197.251 30.8564 197.163 30.5391 196.987 30.2559C196.812 29.9629 196.475 29.6992 195.977 29.4648C195.488 29.2305 194.766 29.0156 193.809 28.8203C192.969 28.6348 192.197 28.415 191.494 28.1611C190.801 27.8975 190.205 27.5801 189.707 27.209C189.209 26.8379 188.823 26.3984 188.55 25.8906C188.276 25.3828 188.14 24.7969 188.14 24.1328C188.14 23.4883 188.281 22.8779 188.564 22.3018C188.848 21.7256 189.253 21.2178 189.78 20.7783C190.308 20.3389 190.947 19.9922 191.699 19.7383C192.461 19.4844 193.311 19.3574 194.248 19.3574C195.576 19.3574 196.714 19.582 197.661 20.0312C198.618 20.4707 199.351 21.0713 199.858 21.833C200.366 22.585 200.62 23.4346 200.62 24.3818H197.09C197.09 23.9619 196.982 23.5713 196.768 23.21C196.562 22.8389 196.25 22.541 195.83 22.3164C195.41 22.082 194.883 21.9648 194.248 21.9648C193.643 21.9648 193.14 22.0625 192.739 22.2578C192.349 22.4434 192.056 22.6875 191.86 22.9902C191.675 23.293 191.582 23.625 191.582 23.9863C191.582 24.25 191.631 24.4893 191.729 24.7041C191.836 24.9092 192.012 25.0996 192.256 25.2754C192.5 25.4414 192.832 25.5977 193.252 25.7441C193.682 25.8906 194.219 26.0322 194.863 26.1689C196.074 26.4229 197.114 26.75 197.983 27.1504C198.862 27.541 199.536 28.0488 200.005 28.6738C200.474 29.2891 200.708 30.0703 200.708 31.0176C200.708 31.7207 200.557 32.3652 200.254 32.9512C199.961 33.5273 199.531 34.0303 198.965 34.46C198.398 34.8799 197.72 35.207 196.929 35.4414C196.147 35.6758 195.269 35.793 194.292 35.793C192.856 35.793 191.641 35.5391 190.645 35.0312C189.648 34.5137 188.892 33.8545 188.374 33.0537C187.866 32.2432 187.612 31.4033 187.612 30.5342H191.025C191.064 31.1885 191.245 31.7109 191.567 32.1016C191.899 32.4824 192.31 32.7607 192.798 32.9365C193.296 33.1025 193.809 33.1855 194.336 33.1855C194.971 33.1855 195.503 33.1025 195.933 32.9365C196.362 32.7607 196.689 32.5264 196.914 32.2334C197.139 31.9307 197.251 31.5889 197.251 31.208Z" fill="white" fill-opacity="0.9"/>
</svg>
