<svg width="13" height="16" viewBox="0 0 13 16" fill="none" xmlns="http://www.w3.org/2000/svg">
<path d="M12.5643 5.41921C12.0077 5.76085 11.5551 6.24883 11.2559 6.8301C10.9567 7.41137 10.8222 8.0637 10.8672 8.71618C10.9121 9.36865 11.1346 9.99631 11.5107 10.5309C11.8867 11.0655 12.4018 11.4867 13 11.7485C12.9361 11.929 12.8768 12.1164 12.805 12.2993C12.3967 13.308 11.8239 14.2417 11.1102 15.0623C10.8082 15.5083 10.3482 15.8224 9.82347 15.9408C9.29875 16.0592 8.74871 15.9731 8.28508 15.6999C7.82394 15.4719 7.31663 15.3533 6.80241 15.3533C6.28819 15.3533 5.78087 15.4719 5.31973 15.6999C5.1712 15.7667 5.01886 15.8247 4.86352 15.8736C4.54235 16.0002 4.19182 16.0327 3.85291 15.9671C3.51401 15.9016 3.20074 15.7407 2.94973 15.5033C2.2062 14.8166 1.59533 13.9985 1.1477 13.09C0.279949 11.5108 -0.109644 9.71238 0.0265696 7.91482C0.0729078 7.05248 0.375719 6.22375 0.896046 5.53525C1.41637 4.84676 2.13041 4.32999 2.9463 4.05143C3.67802 3.81818 4.46794 3.84727 5.18059 4.1337C6.77732 4.75532 6.46025 4.70504 8.01934 4.1337C8.71744 3.83836 9.48775 3.759 10.2312 3.90581C10.9747 4.05263 11.6573 4.41892 12.1914 4.95757C12.285 5.0526 12.3723 5.15376 12.4525 5.26038C12.4936 5.30837 12.5267 5.37008 12.5643 5.41921Z" fill="white"/>
<path d="M9.6557 0C9.70113 0.448962 9.65486 0.90249 9.51973 1.33296C9.3846 1.76344 9.16342 2.16185 8.86967 2.50394C8.57593 2.84603 8.21575 3.12463 7.81108 3.32279C7.40642 3.52094 6.96573 3.6345 6.51585 3.65654C6.07789 2.18136 7.92782 0.0148547 9.6557 0Z" fill="white"/>
</svg>
