<svg width="28" height="28" viewBox="0 0 28 28" fill="none" xmlns="http://www.w3.org/2000/svg">
<path d="M13.9912 5.25781C18.9746 5.25781 23.0879 9.37109 23.0879 14.3457C23.0879 19.3203 18.9658 23.4336 13.9824 23.4336C9.00781 23.4336 4.90332 19.3203 4.90332 14.3457C4.90332 9.37109 9.0166 5.25781 13.9912 5.25781ZM14.9756 11.4541C14.3779 10.8213 13.6133 10.8213 13.0156 11.4541L9.52637 15.1719C9.21875 15.4971 9.20996 15.9805 9.49121 16.2705C9.81641 16.5957 10.3174 16.5957 10.6162 16.2793L14 12.6846L17.3838 16.2793C17.6738 16.5957 18.166 16.5869 18.5 16.2705C18.79 15.9893 18.7812 15.4971 18.4648 15.1719L14.9756 11.4541Z" fill="#252F44"/>
</svg>
