<svg width="28" height="28" viewBox="0 0 28 28" fill="none" xmlns="http://www.w3.org/2000/svg">
<path d="M14.0088 22.7422C9.02539 22.7422 4.91211 18.6289 4.91211 13.6543C4.91211 8.67969 9.03418 4.56641 14.0176 4.56641C18.9922 4.56641 23.0967 8.67969 23.0967 13.6543C23.0967 18.6289 18.9834 22.7422 14.0088 22.7422ZM13.0244 16.5459C13.6221 17.1787 14.3867 17.1787 14.9844 16.5459L18.4736 12.8281C18.7812 12.5029 18.79 12.0195 18.5088 11.7295C18.1836 11.4043 17.6826 11.4043 17.3838 11.7207L14 15.3154L10.6162 11.7207C10.3262 11.4043 9.83398 11.4131 9.5 11.7295C9.20996 12.0107 9.21875 12.5029 9.53516 12.8281L13.0244 16.5459Z" fill="#252F44"/>
</svg>
