<svg width="47" height="47" viewBox="0 0 47 47" fill="none" xmlns="http://www.w3.org/2000/svg">
<path d="M27.4167 3.91666H11.75C10.7112 3.91666 9.71501 4.3293 8.9805 5.06382C8.24598 5.79834 7.83333 6.79456 7.83333 7.83332V39.1667C7.83333 40.2054 8.24598 41.2016 8.9805 41.9362C9.71501 42.6707 10.7112 43.0833 11.75 43.0833H35.25C36.2888 43.0833 37.285 42.6707 38.0195 41.9362C38.754 41.2016 39.1667 40.2054 39.1667 39.1667V15.6667L27.4167 3.91666Z" stroke="black" stroke-width="3" stroke-linecap="round" stroke-linejoin="round"/>
<path d="M27.4167 3.91666V11.6667C27.4167 13.8758 29.2075 15.6667 31.4167 15.6667H39.1667" stroke="black" stroke-width="3" stroke-linecap="round" stroke-linejoin="round"/>
<path d="M31.3333 25.4583H15.6667" stroke="black" stroke-width="3" stroke-linecap="round" stroke-linejoin="round"/>
<path d="M31.3333 33.2917H15.6667" stroke="black" stroke-width="3" stroke-linecap="round" stroke-linejoin="round"/>
<path d="M19.5833 17.625H17.625H15.6667" stroke="black" stroke-width="3" stroke-linecap="round" stroke-linejoin="round"/>
</svg>
