<svg width="76" height="77" viewBox="0 0 76 77" fill="none" xmlns="http://www.w3.org/2000/svg">
<path d="M66.2367 48.0152L65.9541 48.7034L68.1376 49.599L67.393 51.4121L68.0369 51.6762L68.7815 49.8631L70.4099 50.531L69.4708 52.8177L70.1148 53.0818L71.3365 50.1069L66.2367 48.0152Z" fill="black"/>
<path d="M64.3882 52.2567L62.6444 55.1099L63.2385 55.4725L64.5943 53.2541L66.0147 54.1211L64.8674 55.9982L65.4615 56.3608L66.6087 54.4837L68.111 55.4007L66.7969 57.5509L67.3909 57.9135L69.0931 55.1285L64.3882 52.2567Z" fill="black"/>
<path d="M64.1552 60.4737L61.7124 59.5462L62.9152 58.1749L64.1552 60.4737ZM59.6316 58.7762L59.1146 59.3656L64.6377 61.428L65.1652 60.8266L62.4011 55.6188L61.8788 56.2142L62.5785 57.5397L61.0382 59.2958L59.6316 58.7762Z" fill="black"/>
<path d="M61.6371 63.5991L60.3369 64.6502L57.3119 60.9129L56.7271 61.3857L59.7521 65.1229L58.4518 66.174L58.8947 66.7213L62.0801 64.1463L61.6371 63.5991Z" fill="black"/>
<path d="M52.7296 66.2404C52.5506 65.9188 52.5077 65.5949 52.6116 65.2717C52.7155 64.9485 52.9159 64.6998 53.2236 64.5288C53.5312 64.3578 53.8483 64.3189 54.1779 64.4011C54.5075 64.4834 54.7602 64.6907 54.9391 65.0123L56.6976 68.172L57.3549 67.8067L55.5964 64.6469C55.3124 64.1366 54.9112 63.8105 54.3896 63.6793C53.8719 63.5552 53.3629 63.6276 52.8734 63.8997C52.384 64.1717 52.0609 64.5618 51.8933 65.0668C51.7297 65.5788 51.7883 66.0954 52.0723 66.6057L53.8307 69.7654L54.488 69.4001L52.7296 66.2404Z" fill="black"/>
<path d="M48.2278 68.3111C47.7772 68.5027 47.4935 68.7907 47.3742 69.1674C47.2473 69.5467 47.2544 69.9489 47.3957 70.374C47.547 70.8296 47.8047 71.1739 48.1687 71.4072C48.5328 71.6404 48.973 71.6714 49.4893 71.5001L51.5015 70.8326L49.764 65.6016L49.0503 65.8383L49.7009 67.7971L49.0327 68.0188L47.0305 66.5084L46.1725 66.793L48.2278 68.3111ZM49.2927 70.832C48.7233 71.0209 48.3036 70.6713 48.1246 70.1322C47.943 69.5856 48.0752 69.0697 48.675 68.8707L49.9203 68.4577L50.5684 70.4089L49.2927 70.832Z" fill="black"/>
<path d="M44.4573 67.2038L41.1503 67.6993L41.2535 68.3876L43.8248 68.0024L44.0717 69.648L41.896 69.974L41.9993 70.6623L44.175 70.3363L44.4361 72.0768L41.9439 72.4502L42.0472 73.1385L45.2751 72.6549L44.4573 67.2038Z" fill="black"/>
<path d="M37.7287 67.7716C36.9613 67.7409 36.3435 67.9723 35.8833 68.4663C35.4228 68.9682 35.1727 69.6147 35.1406 70.4141C35.1082 71.2214 35.3057 71.8859 35.7325 72.4234C36.1512 72.9606 36.7482 73.2487 37.5076 73.2792L39.6419 73.3647L39.8629 67.8572L37.7287 67.7716ZM38.9264 72.6395L37.5355 72.5837C36.9839 72.5616 36.56 72.3525 36.2799 71.9489C35.9916 71.5531 35.8596 71.0514 35.884 70.4439C35.908 69.8443 36.0798 69.3548 36.399 68.9833C36.7098 68.6195 37.1492 68.4449 37.7007 68.4671L39.0916 68.5228L38.9264 72.6395Z" fill="black"/>
<path d="M30.5189 68.4115C30.6608 67.9866 30.6104 67.5566 30.3677 67.1214C30.1225 66.6939 29.7432 66.3903 29.2195 66.2156C28.7262 66.0511 28.2809 66.0459 27.8836 66.2001C27.4863 66.3544 27.1952 66.6199 27.0179 66.9993C26.6456 67.7859 26.9564 68.522 27.8669 69.104L28.4942 69.4988C28.947 69.7847 29.1163 70.111 28.9947 70.4753C28.9161 70.7105 28.7541 70.8673 28.5163 70.9482C28.2708 71.0265 28.0178 71.0265 27.7522 70.9379C27.1754 70.7455 26.8796 70.2674 27.0519 69.7514L26.3461 69.516C26.1916 69.9789 26.2293 70.3962 26.4543 70.7833C26.6793 71.1704 27.0333 71.4487 27.519 71.6107C27.982 71.7651 28.4222 71.7601 28.8499 71.5907C29.2751 71.4289 29.5586 71.1356 29.703 70.7031C29.9336 70.0126 29.6607 69.4155 28.8842 68.912L28.2645 68.5198C27.7586 68.2161 27.478 67.7936 27.6882 67.2903C27.901 66.8806 28.3692 66.6657 28.9991 66.8758C29.3178 66.9821 29.553 67.1617 29.7022 67.4223C29.8513 67.6829 29.8841 67.9383 29.8131 68.1761L30.5189 68.4115Z" fill="black"/>
<path d="M24.6267 69.7579L23.1451 68.9831L25.3755 64.7238L24.7091 64.3753L22.4787 68.6345L20.9971 67.8597L20.6705 68.4833L24.3001 70.3816L24.6267 69.7579Z" fill="black"/>
<path d="M20.9706 65.529C21.4569 64.9141 21.6554 64.2246 21.5771 63.4595C21.4989 62.6943 21.1465 62.0694 20.5375 61.5884C19.9223 61.1024 19.2325 60.9042 18.4694 61.005C17.7001 61.1008 17.0748 61.453 16.5885 62.0679C16.0972 62.6891 15.8988 63.3785 15.9833 64.1487C16.0616 64.9139 16.414 65.5388 17.0292 66.0247C17.6382 66.5057 18.328 66.7039 19.091 66.6032C19.8541 66.5024 20.4794 66.1502 20.9706 65.529ZM17.4758 65.46C17.0238 65.1029 16.7698 64.6373 16.7153 64.0743C16.6607 63.5114 16.8164 62.9921 17.1786 62.534C17.5409 62.0759 18.0105 61.8046 18.5712 61.7276C19.1319 61.6505 19.6389 61.7961 20.0909 62.1531C20.5429 62.5101 20.8019 62.9695 20.8564 63.5325C20.911 64.0955 20.749 64.6098 20.3868 65.0678C20.0245 65.5259 19.555 65.7973 18.9942 65.8743C18.4335 65.9514 17.9216 65.812 17.4758 65.46Z" fill="black"/>
<path d="M14.3432 58.6242C13.9974 58.2775 13.6243 58.1214 13.2301 58.1509C12.8306 58.1742 12.4598 58.3305 12.1177 58.6197C11.7511 58.9295 11.5273 59.2967 11.4464 59.7212C11.3655 60.1458 11.5008 60.5657 11.8522 60.9809L13.2218 62.5992L17.4315 59.0412L16.9457 58.4672L15.3693 59.7995L14.9145 59.2621L15.571 56.8428L14.987 56.1527L14.3432 58.6242ZM12.3993 60.55C12.0117 60.092 12.18 59.5726 12.6138 59.206C13.0537 58.8341 13.5819 58.7648 13.9902 59.2472L14.8378 60.2488L13.2675 61.5759L12.3993 60.55Z" fill="black"/>
<path d="M13.9401 54.6164L13.5451 53.9858L8.87212 56.9088L9.26703 57.5394L13.9401 54.6164Z" fill="black"/>
<path d="M12.5589 52.3901L11.143 49.3606L10.5123 49.655L11.6132 52.0105L10.1054 52.7143L9.17386 50.7212L8.54319 51.0156L9.47469 53.0087L7.87989 53.7531L6.8129 51.4701L6.18223 51.7645L7.56423 54.7215L12.5589 52.3901Z" fill="black"/>
<path d="M9.26599 48.9627C9.6967 48.8394 10.0229 48.5547 10.2446 48.1085C10.4586 47.6646 10.4946 47.18 10.3426 46.6493C10.1994 46.1494 9.95189 45.7792 9.60007 45.5387C9.24824 45.2982 8.86464 45.2082 8.45147 45.2765C7.59216 45.4141 7.1607 46.0867 7.19546 47.1668L7.22451 47.9074C7.24464 48.4425 7.07121 48.7667 6.70202 48.8724C6.46359 48.9406 6.24267 48.8956 6.04146 48.7451C5.83805 48.587 5.69504 48.3782 5.61794 48.1091C5.45052 47.5246 5.67768 47.0102 6.20069 46.8606L5.99583 46.1454C5.52665 46.2796 5.20372 46.5467 5.01166 46.9511C4.8196 47.3556 4.79022 47.805 4.93121 48.2972C5.06558 48.7663 5.31858 49.1267 5.70009 49.3836C6.07391 49.6428 6.47617 49.7108 6.91458 49.5854C7.6145 49.3852 7.95262 48.8225 7.92895 47.8973L7.9021 47.1644C7.86656 46.5755 8.05637 46.1051 8.5904 45.9939C9.04864 45.9377 9.4906 46.2024 9.67344 46.8407C9.76596 47.1638 9.75077 47.4593 9.62016 47.7297C9.48956 48 9.29735 48.1715 9.06112 48.2474L9.26599 48.9627Z" fill="black"/>
<path d="M10.2881 29.9873L10.5449 29.289L8.32946 28.4755L9.00578 26.6359L8.35243 26.396L7.6761 28.2356L6.02393 27.6289L6.87694 25.3088L6.22358 25.0689L5.11385 28.0873L10.2881 29.9873Z" fill="black"/>
<path d="M11.9304 25.7595L13.5575 22.8381L12.9493 22.4997L11.6842 24.7711L10.23 23.9622L11.3005 22.0403L10.6922 21.7019L9.62175 23.6239L8.08369 22.7683L9.30989 20.5668L8.70165 20.2284L7.11343 23.0799L11.9304 25.7595Z" fill="black"/>
<path d="M11.8311 17.5291L14.3091 18.3581L13.1621 19.7764L11.8311 17.5291ZM16.419 19.0443L16.912 18.4347L11.3109 16.5947L10.8079 17.2168L13.778 22.3099L14.276 21.6941L13.5239 20.3977L14.9928 18.5813L16.419 19.0443Z" fill="black"/>
<path d="M14.2117 14.3037L15.4688 13.2014L18.6411 16.8145L19.2065 16.3187L16.0342 12.7056L17.2913 11.6033L16.8268 11.0742L13.7472 13.7747L14.2117 14.3037Z" fill="black"/>
<path d="M23.0206 11.29C23.2125 11.604 23.2686 11.9259 23.1778 12.2531C23.0871 12.5803 22.897 12.8368 22.5965 13.0202C22.2961 13.2036 21.9808 13.2553 21.6482 13.1866C21.3155 13.1178 21.0546 12.9209 20.8627 12.6068L18.9773 9.52118L18.3354 9.91289L20.2208 12.9985C20.5253 13.4969 20.9395 13.8065 21.4659 13.9163C21.9883 14.0193 22.4939 13.9263 22.9719 13.6346C23.45 13.3429 23.7569 12.94 23.9038 12.4286C24.0466 11.9104 23.967 11.3966 23.6625 10.8983L21.7771 7.81263L21.1352 8.20435L23.0206 11.29Z" fill="black"/>
<path d="M27.304 9.08265C27.7463 8.87251 28.0177 8.57303 28.1213 8.19167C28.2324 7.80749 28.2086 7.40592 28.0498 6.98699C27.8797 6.53813 27.608 6.20473 27.2345 5.9868C26.8611 5.76887 26.4199 5.75618 25.9112 5.94873L23.9284 6.6991L25.8816 11.8535L26.5849 11.5873L25.8535 9.65725L26.512 9.40807L28.5751 10.8341L29.4206 10.5142L27.304 9.08265ZM26.1353 6.60807C26.6965 6.39571 27.1303 6.72767 27.3315 7.25882C27.5356 7.79745 27.425 8.31833 26.834 8.54202L25.6069 9.0064L24.8784 7.08378L26.1353 6.60807Z" fill="black"/>
<path d="M31.2086 9.98587L34.4943 9.36392L34.3646 8.68009L31.81 9.16366L31.5002 7.52876L33.6618 7.11958L33.5321 6.43575L31.3705 6.84493L31.0428 5.11571L33.5188 4.64701L33.3892 3.96318L30.1822 4.57025L31.2086 9.98587Z" fill="black"/>
<path d="M37.8503 9.14308C38.6183 9.14425 39.2267 8.88919 39.6675 8.37786C40.1083 7.85854 40.3333 7.20288 40.3345 6.40288C40.3358 5.59488 40.1128 4.93854 39.6656 4.41786C39.2264 3.89718 38.6188 3.63225 37.8588 3.63109L35.7228 3.62782L35.7143 9.13981L37.8503 9.14308ZM36.4657 4.32496L37.8577 4.32709C38.4097 4.32793 38.8414 4.5206 39.1368 4.91305C39.4402 5.29751 39.5915 5.79374 39.5905 6.40174C39.5896 7.00174 39.4369 7.49751 39.1323 7.88104C38.8357 8.25659 38.4034 8.44792 37.8514 8.44708L36.4594 8.44495L36.4657 4.32496Z" fill="black"/>
<path d="M45.1275 8.20232C45.0016 8.63229 45.0682 9.06012 45.3271 9.48582C45.5882 9.90384 45.9787 10.193 46.5086 10.3478C47.0077 10.4937 47.4529 10.4821 47.8441 10.313C48.2353 10.144 48.5162 9.86766 48.6791 9.48187C49.0215 8.68181 48.6832 7.95786 47.7514 7.41054L47.1097 7.03967C46.6465 6.77096 46.465 6.45122 46.5728 6.08267C46.6425 5.84465 46.7985 5.68188 47.0331 5.59209C47.2755 5.50455 47.5283 5.49509 47.7971 5.57363C48.3807 5.74416 48.6942 6.21085 48.5415 6.73295L49.2556 6.94164C49.3927 6.47328 49.3392 6.05761 49.0998 5.67928C48.8604 5.30095 48.4961 5.03614 48.0047 4.89253C47.5363 4.75565 47.0965 4.77717 46.6755 4.96252C46.2568 5.1402 45.9845 5.44402 45.8565 5.88167C45.652 6.58037 45.9473 7.16671 46.7422 7.64069L47.3762 8.00931C47.8931 8.29372 48.1894 8.70536 47.9983 9.21625C47.8011 9.6337 47.3414 9.86607 46.704 9.67982C46.3815 9.58558 46.1397 9.4149 45.9808 9.16012C45.822 8.90534 45.7796 8.65127 45.8416 8.411L45.1275 8.20232Z" fill="black"/>
<path d="M50.945 6.61602L52.4569 7.33005L50.4015 11.6765L51.0815 11.9977L53.1368 7.65119L54.6487 8.36522L54.9497 7.7288L51.2459 5.97959L50.945 6.61602Z" fill="black"/>
<path d="M54.7738 10.6874C54.3125 11.3213 54.1419 12.0181 54.2507 12.7795C54.3595 13.541 54.7366 14.1513 55.3644 14.6075C55.9986 15.0684 56.6958 15.2388 57.4542 15.1076C58.219 14.9811 58.8297 14.6041 59.291 13.9702C59.757 13.3298 59.9276 12.633 59.8123 11.8668C59.7035 11.1054 59.3264 10.4951 58.6921 10.0342C58.0644 9.57797 57.3672 9.40754 56.6088 9.53876C55.8505 9.66998 55.2397 10.047 54.7738 10.6874ZM58.2685 10.6163C58.7345 10.955 59.0069 11.4101 59.0839 11.9704C59.161 12.5308 59.0263 13.0559 58.6827 13.5281C58.3391 14.0003 57.8807 14.2902 57.3236 14.3897C56.7664 14.4891 56.254 14.3639 55.788 14.0253C55.322 13.6867 55.0449 13.2381 54.9679 12.6777C54.8908 12.1174 55.032 11.597 55.3756 11.1248C55.7192 10.6525 56.1776 10.3626 56.7347 10.2632C57.2919 10.1637 57.809 10.2824 58.2685 10.6163Z" fill="black"/>
<path d="M61.6276 17.2615C61.987 17.594 62.3661 17.735 62.7588 17.6898C63.157 17.6505 63.5213 17.4795 63.8516 17.1768C64.2055 16.8526 64.4143 16.4767 64.4782 16.0493C64.542 15.6219 64.39 15.2077 64.0223 14.8069L62.5891 13.2447L58.5251 16.9683L59.0335 17.5225L60.5553 16.1281L61.0312 16.6469L60.4722 19.0906L61.0833 19.7567L61.6276 17.2615ZM63.4929 15.2594C63.8985 15.7015 63.7511 16.2272 63.3324 16.6109C62.9077 17 62.3827 17.0905 61.9554 16.6247L61.0684 15.658L62.5843 14.269L63.4929 15.2594Z" fill="black"/>
<path d="M62.256 21.3172L62.6761 21.9313L67.2272 18.8219L66.8071 18.2078L62.256 21.3172Z" fill="black"/>
<path d="M63.7632 23.5426L65.291 26.5173L65.9102 26.1997L64.7224 23.8868L66.203 23.1274L67.2081 25.0845L67.8273 24.7668L66.8223 22.8098L68.3883 22.0066L69.5395 24.2482L70.1588 23.9306L68.6676 21.0271L63.7632 23.5426Z" fill="black"/>
<path d="M67.1348 26.7073C66.7096 26.8484 66.3955 27.1464 66.1926 27.6014C65.9973 28.054 65.9816 28.5396 66.1556 29.0635C66.3195 29.557 66.5823 29.9165 66.9438 30.1422C67.3054 30.3678 67.6924 30.4417 68.1024 30.3563C68.9552 30.183 69.3582 29.493 69.2784 28.4153L69.2185 27.6765C69.1761 27.1427 69.3359 26.8116 69.7003 26.6907C69.9357 26.6126 70.1583 26.6483 70.3656 26.7903C70.5755 26.9398 70.7271 27.1424 70.8153 27.4081C71.007 27.9851 70.8015 28.5085 70.2851 28.6798L70.5197 29.3858C70.9828 29.2322 71.2943 28.9518 71.4694 28.5398C71.6444 28.1277 71.655 27.6775 71.4936 27.1915C71.3398 26.7284 71.072 26.379 70.6801 26.1381C70.2958 25.8947 69.891 25.8436 69.4582 25.9871C68.7673 26.2163 68.4529 26.7926 68.5151 27.716L68.5725 28.4471C68.6326 29.0341 68.4626 29.5119 67.9336 29.6453C67.4781 29.7205 67.0255 29.4745 66.8162 28.8443C66.7103 28.5255 66.7131 28.2295 66.8324 27.954C66.9516 27.6784 67.1365 27.4991 67.3693 27.4134L67.1348 26.7073Z" fill="black"/>
<ellipse cx="6.06188" cy="37.8838" rx="0.995721" ry="0.995091" fill="black"/>
<ellipse cx="69.788" cy="38.8799" rx="0.995721" ry="0.995091" fill="black"/>
<path d="M39 33L40.3505 36.6495L44 38L40.3505 39.3505L39 43L37.6495 39.3505L34 38L37.6495 36.6495L39 33Z" fill="black"/>
</svg>
