<svg width="27" height="27" viewBox="0 0 27 27" fill="none" xmlns="http://www.w3.org/2000/svg">
<g clip-path="url(#clip0_1821_14129)">
<path fill-rule="evenodd" clip-rule="evenodd" d="M5.68503 6.51722C5.09187 6.51722 4.61102 6.97007 4.61102 7.5287V14.6091C4.61102 15.1677 5.09187 15.6205 5.68503 15.6205H16.9621C17.5553 15.6205 18.0361 15.1677 18.0361 14.6091V7.5287C18.0361 6.97007 17.5553 6.51722 16.9621 6.51722H5.68503ZM3 7.5287C3 6.13214 4.20213 5 5.68503 5H16.9621C18.445 5 19.6472 6.13214 19.6472 7.5287V14.6091C19.6472 16.0056 18.445 17.1378 16.9621 17.1378H5.68503C4.20213 17.1378 3 16.0056 3 14.6091V7.5287Z" fill="#1E1E1E"/>
<path fill-rule="evenodd" clip-rule="evenodd" d="M24.8217 5.95688C25.1048 6.08174 25.2856 6.34952 25.2856 6.64387V15.4943C25.2856 15.7887 25.1048 16.0565 24.8217 16.1813C24.5387 16.3062 24.2045 16.2655 23.9644 16.0771L18.3258 11.6519C18.1422 11.5077 18.036 11.2942 18.036 11.0691C18.036 10.844 18.1422 10.6304 18.3258 10.4863L23.9644 6.06109C24.2045 5.87265 24.5387 5.83203 24.8217 5.95688ZM20.0998 11.0691L23.6746 13.8747V8.26354L20.0998 11.0691Z" fill="#1E1E1E"/>
<path d="M6 22C8.76142 22 11 19.7614 11 17C11 14.2386 8.76142 12 6 12C3.23857 12 1 14.2386 1 17C1 19.7614 3.23857 22 6 22Z" fill="#EF3C5E"/>
<path fill-rule="evenodd" clip-rule="evenodd" d="M7.61939 17.6986C7.78668 17.5981 7.88916 17.4173 7.88916 17.2223C7.88916 17.0273 7.78668 16.8464 7.61939 16.746L4.8414 15.0792C4.66978 14.9763 4.45588 14.9734 4.28179 15.0721C4.1077 15.1705 3.99998 15.3555 3.99998 15.5555V18.8891C3.99998 19.0891 4.1077 19.2741 4.28179 19.3724C4.45588 19.4712 4.66978 19.4683 4.8414 19.3653L7.61939 17.6986Z" fill="white"/>
</g>
<defs>
<clipPath id="clip0_1821_14129">
<rect width="26" height="26" fill="white" transform="translate(0.809326 0.249512)"/>
</clipPath>
</defs>
</svg>
