<svg width="52" height="52" viewBox="0 0 52 52" fill="none" xmlns="http://www.w3.org/2000/svg">
<circle cx="26" cy="26" r="25" stroke="#E4E4E4"/>
<path fill-rule="evenodd" clip-rule="evenodd" d="M26.2222 18C23.9885 18 23.7103 18.0096 22.8319 18.0507C19.8445 18.1877 18.1864 19.8445 18.0493 22.8319C18.0096 23.7103 18 23.9899 18 26.2222C18 28.4559 18.0096 28.7355 18.0493 29.6125C18.1864 32.5986 19.8445 34.2581 22.8319 34.3951C23.7103 34.4349 23.9885 34.4444 26.2222 34.4444C28.4559 34.4444 28.7355 34.4349 29.6139 34.3951C32.5958 34.2581 34.2608 32.6013 34.3951 29.6125C34.4349 28.7355 34.4444 28.4559 34.4444 26.2222C34.4444 23.9899 34.4349 23.7103 34.3951 22.8319C34.2608 19.8486 32.6013 18.1864 29.6139 18.0507C28.7355 18.0096 28.4559 18 26.2222 18ZM26.2213 19.4844C28.4167 19.4844 28.677 19.4926 29.5445 19.5323C31.7741 19.6337 32.8128 20.6903 32.9156 22.9021C32.9539 23.7695 32.9622 24.0285 32.9622 26.2239C32.9622 28.4192 32.9539 28.6796 32.9156 29.5456C32.8128 31.756 31.7754 32.8153 29.5445 32.9167C28.677 32.9551 28.418 32.9647 26.2213 32.9647C24.026 32.9647 23.7656 32.9565 22.8995 32.9167C20.6658 32.814 19.6312 31.7533 19.5284 29.5456C19.4901 28.6796 19.4805 28.4192 19.4805 26.2239C19.4805 24.0285 19.4901 23.7682 19.5284 22.9021C19.6298 20.6889 20.6686 19.6324 22.8995 19.531C23.7656 19.4912 24.026 19.4844 26.2213 19.4844ZM22 26.2221C22 23.8897 23.8911 22 26.2221 22C28.5531 22 30.4442 23.8911 30.4442 26.2221C30.4442 28.5545 28.5531 30.4442 26.2221 30.4442C23.8911 30.4442 22 28.5545 22 26.2221ZM26.2222 28.962C24.7079 28.962 23.4814 27.7355 23.4814 26.2212C23.4814 24.7083 24.7079 23.4805 26.2222 23.4805C27.7351 23.4805 28.9643 24.707 28.9643 26.2212C28.9643 27.7355 27.7351 28.962 26.2222 28.962ZM29.6211 21.8343C29.6211 21.2889 30.0637 20.8477 30.6078 20.8477C31.1545 20.8477 31.5958 21.2889 31.5958 21.8343C31.5958 22.3797 31.1532 22.821 30.6078 22.821C30.0624 22.821 29.6211 22.3784 29.6211 21.8343Z" fill="black"/>
</svg>
