<svg width="52" height="52" viewBox="0 0 52 52" fill="none" xmlns="http://www.w3.org/2000/svg">
<circle cx="26" cy="26" r="25" stroke="#E4E4E4"/>
<g clip-path="url(#clip0_114_351)">
<path d="M31.9986 32.0001V31.9996H32.0016V27.5986C32.0016 25.4456 31.5381 23.7871 29.0211 23.7871C27.8111 23.7871 26.9991 24.4511 26.6676 25.0806H26.6326V23.9881H24.2461V31.9996H26.7311V28.0326C26.7311 26.9881 26.9291 25.9781 28.2226 25.9781C29.4971 25.9781 29.5161 27.1701 29.5161 28.0996V32.0001H31.9986Z" fill="black"/>
<path d="M20.1992 23.9883H22.6872V31.9998H20.1992V23.9883Z" fill="black"/>
<path d="M21.441 20C20.6455 20 20 20.6455 20 21.441C20 22.2365 20.6455 22.8955 21.441 22.8955C22.2365 22.8955 22.882 22.2365 22.882 21.441C22.8815 20.6455 22.236 20 21.441 20V20Z" fill="black"/>
</g>
<defs>
<clipPath id="clip0_114_351">
<rect width="12" height="12" fill="white" transform="translate(20 20)"/>
</clipPath>
</defs>
</svg>
