<svg width="16" height="16" viewBox="0 0 16 16" fill="none" xmlns="http://www.w3.org/2000/svg">
<path d="M1.2759 0.252514C1.06407 0.495724 0.95715 0.807076 0.976938 1.1231V14.8784C0.95715 15.1944 1.06407 15.5058 1.2759 15.749L1.32139 15.7925L9.37386 8.09404V7.9137L1.32139 0.208984L1.2759 0.252514Z" fill="url(#paint0_linear_810_2717)"/>
<path d="M12.0377 10.6629L9.37305 8.09464V7.9143L12.0377 5.33984L12.0962 5.37094L15.2873 7.1059C16.1972 7.59716 16.1972 8.40556 15.2873 8.90304L12.1092 10.6318L12.0377 10.6629Z" fill="url(#paint1_linear_810_2717)"/>
<path d="M12.116 10.6242L9.37335 8L1.27539 15.7482C1.65801 16.0701 2.22585 16.0857 2.62722 15.7856L12.1225 10.6242" fill="url(#paint2_linear_810_2717)"/>
<path d="M12.1152 5.37637L2.61989 0.215019C2.21852 -0.0851637 1.65068 -0.0694911 1.26807 0.25233L9.37253 8.00057L12.1152 5.37637Z" fill="url(#paint3_linear_810_2717)"/>
<path opacity="0.2" d="M12.038 10.5684L2.62072 15.6986C2.23534 15.9743 1.70626 15.9743 1.32088 15.6986L1.27539 15.7421L1.32088 15.7857C1.70554 16.0634 2.23607 16.0634 2.62072 15.7857L12.116 10.6243L12.038 10.5684Z" fill="#252F44"/>
<path opacity="0.12" fill-rule="evenodd" clip-rule="evenodd" d="M12.0386 10.5682L15.2882 8.80841C15.624 8.64981 15.864 8.35125 15.9381 8C15.9046 8.38828 15.6567 8.72981 15.2882 8.89547L12.0971 10.6242L12.0386 10.5682ZM0.975524 14.9126C0.986258 15.1862 1.09123 15.45 1.27597 15.6621L1.32148 15.7118L1.27597 15.7554C1.0703 15.5193 0.963505 15.219 0.975524 14.9126ZM0.975524 14.9126C0.975887 14.9033 0.976358 14.894 0.976938 14.8848V14.7915C0.974403 14.832 0.973947 14.8724 0.975524 14.9126Z" fill="#252F44"/>
<path opacity="0.25" d="M2.62003 0.302533L15.2869 7.19262C15.6227 7.35122 15.8628 7.64978 15.9368 8.00103C15.9033 7.61275 15.6555 7.27122 15.2869 7.10557L2.62003 0.215474C1.71014 -0.275787 0.969238 0.134633 0.969238 1.12959V1.22287C0.988736 0.221692 1.71664 -0.188728 2.62003 0.302533Z" fill="white"/>
<defs>
<linearGradient id="paint0_linear_810_2717" x1="5.84691" y1="-9.13677" x2="-6.96892" y2="-5.57454" gradientUnits="userSpaceOnUse">
<stop stop-color="#00A0FF"/>
<stop offset="0.01" stop-color="#00A1FF"/>
<stop offset="0.26" stop-color="#00BEFF"/>
<stop offset="0.51" stop-color="#00D2FF"/>
<stop offset="0.76" stop-color="#00DFFF"/>
<stop offset="1" stop-color="#00E3FF"/>
</linearGradient>
<linearGradient id="paint1_linear_810_2717" x1="16.4766" y1="1.6583" x2="0.755148" y2="1.6583" gradientUnits="userSpaceOnUse">
<stop stop-color="#FFE000"/>
<stop offset="0.41" stop-color="#FFBD00"/>
<stop offset="0.78" stop-color="#FFA500"/>
<stop offset="1" stop-color="#FF9C00"/>
</linearGradient>
<linearGradient id="paint2_linear_810_2717" x1="1.03745" y1="3.9751" x2="-8.65861" y2="21.0209" gradientUnits="userSpaceOnUse">
<stop stop-color="#FF3A44"/>
<stop offset="1" stop-color="#C31162"/>
</linearGradient>
<linearGradient id="paint3_linear_810_2717" x1="-5.04911" y1="-1.88932" x2="-0.721308" y2="5.72238" gradientUnits="userSpaceOnUse">
<stop stop-color="#32A071"/>
<stop offset="0.07" stop-color="#2DA771"/>
<stop offset="0.48" stop-color="#15CF74"/>
<stop offset="0.8" stop-color="#06E775"/>
<stop offset="1" stop-color="#00F076"/>
</linearGradient>
</defs>
</svg>
