<svg width="46" height="44" viewBox="0 0 46 44" fill="none" xmlns="http://www.w3.org/2000/svg">
<g clip-path="url(#clip0_3412_16869)">
<path d="M14.1219 24.39H0.941458C0.691768 24.39 0.452304 24.2948 0.275747 24.1254C0.0991891 23.956 0 23.7262 0 23.4867V1.80665C0 1.56707 0.0991891 1.33731 0.275747 1.1679C0.452304 0.998493 0.691768 0.90332 0.941458 0.90332H14.1219C14.3716 0.90332 14.611 0.998493 14.7876 1.1679C14.9641 1.33731 15.0633 1.56707 15.0633 1.80665V23.4867C15.0633 23.7262 14.9641 23.956 14.7876 24.1254C14.611 24.2948 14.3716 24.39 14.1219 24.39ZM1.88292 22.5833H13.1804V2.70999H1.88292V22.5833Z" fill="black"/>
<path d="M24.4775 42.4566C22.5231 42.4566 21.1241 41.4015 21.0638 41.3564C20.9539 41.2713 20.8651 41.1637 20.8042 41.0415C20.7433 40.9193 20.7117 40.7855 20.7117 40.65V34.5254L15.287 23.25L13.6997 22.4893C13.5891 22.4363 13.4904 22.3629 13.4093 22.2733C13.3282 22.1837 13.2663 22.0796 13.2272 21.967C13.188 21.8545 13.1723 21.7356 13.1811 21.6172C13.1898 21.4988 13.2227 21.3832 13.278 21.2771C13.3896 21.0627 13.5854 20.8996 13.8223 20.8237C13.9396 20.7861 14.0635 20.771 14.1869 20.7794C14.3103 20.7878 14.4307 20.8194 14.5414 20.8724L16.4243 21.7757C16.6156 21.8674 16.7685 22.0191 16.8574 22.2057L22.5061 33.949C22.5645 34.067 22.5947 34.196 22.5946 34.3266V40.1585C22.9844 40.3663 23.666 40.65 24.4775 40.65C25.5094 40.65 28.2434 38.1875 28.2434 35.23C28.2434 32.052 26.4395 27.4667 26.4226 27.4215C26.3687 27.2849 26.3501 27.1378 26.3685 26.9927C26.3869 26.8477 26.4417 26.7091 26.5281 26.5888C26.6146 26.4686 26.7302 26.3702 26.8649 26.3022C26.9997 26.2342 27.1497 26.1986 27.3019 26.1984H40.4823C42.0395 26.1984 43.3067 24.9825 43.3067 23.4884C43.3067 22.549 42.8002 21.689 41.9529 21.1885C41.812 21.1037 41.697 20.9848 41.6193 20.8437C41.5417 20.7026 41.5042 20.5443 41.5107 20.3849C41.5172 20.2254 41.5674 20.0705 41.6563 19.9356C41.7452 19.8007 41.8696 19.6907 42.0169 19.6167C42.8134 19.2229 43.3067 18.4569 43.3067 17.615C43.3067 16.475 42.4086 15.5174 41.2204 15.3873C41.1057 15.4903 40.9658 15.5639 40.8136 15.6014C40.6615 15.6389 40.5019 15.6392 40.3497 15.6021C40.1974 15.5651 40.0572 15.4919 39.9421 15.3893C39.827 15.2868 39.7406 15.1581 39.6908 15.0151C39.641 14.8722 39.6295 14.7195 39.6572 14.5711C39.685 14.4227 39.7511 14.2834 39.8496 14.166C39.9481 14.0486 40.0757 13.9567 40.2208 13.899C40.3659 13.8412 40.5238 13.8194 40.68 13.8354C41.1583 13.4 41.4238 12.8165 41.4238 12.195C41.4238 11.055 40.5256 10.0974 39.3375 9.96734C39.2227 10.0712 39.0825 10.1456 38.9299 10.1838C38.7772 10.222 38.617 10.2226 38.464 10.1857C38.311 10.1488 38.1701 10.0756 38.0544 9.9727C37.9387 9.86982 37.8518 9.74064 37.8018 9.59707C37.7518 9.4535 37.7403 9.30016 37.7684 9.1512C37.7964 9.00224 37.8631 8.86244 37.9622 8.74471C38.0614 8.62698 38.1898 8.53511 38.3358 8.47756C38.4817 8.42001 38.6403 8.39864 38.7971 8.41541C39.2754 7.98001 39.5409 7.39645 39.5409 6.77496C39.5409 5.53017 38.4846 4.51663 37.1872 4.51663H19.7703C18.2413 4.51663 15.6787 5.20497 14.7881 6.05952C14.6105 6.22407 14.3727 6.31512 14.1258 6.31306C13.879 6.311 13.6429 6.216 13.4683 6.04852C13.2937 5.88103 13.1947 5.65446 13.1926 5.41761C13.1904 5.18076 13.2853 4.95258 13.4568 4.78221C14.8671 3.43082 18.0286 2.70996 19.7703 2.70996H37.1872C37.9076 2.71162 38.6157 2.88926 39.2447 3.22614C39.8737 3.56302 40.4029 4.04805 40.7825 4.6355C41.1621 5.22296 41.3796 5.89348 41.4143 6.58388C41.4491 7.27427 41.3001 7.96179 40.9813 8.58163C41.979 9.06185 42.7375 9.90211 43.0905 10.9181C43.4435 11.9342 43.3621 13.0431 42.8642 14.0016C43.4586 14.2884 43.9738 14.706 44.3678 15.2204C44.7617 15.7348 45.0232 16.3314 45.1308 16.9613C45.2384 17.5913 45.1891 18.2367 44.9869 18.8449C44.7848 19.453 44.4355 20.0066 43.9676 20.4605C44.7471 21.2789 45.1896 22.3466 45.1896 23.4866C45.1896 25.9762 43.0789 28.0033 40.4823 28.0033H28.6275C29.2037 29.6817 30.1263 32.7584 30.1263 35.23C30.1263 39.1504 26.6561 42.4566 24.4775 42.4566Z" fill="black"/>
</g>
<defs>
<clipPath id="clip0_3412_16869">
<rect width="45.19" height="43.36" fill="white"/>
</clipPath>
</defs>
</svg>
