<svg width="46" height="44" viewBox="0 0 46 44" fill="none" xmlns="http://www.w3.org/2000/svg">
<g clip-path="url(#clip0_3412_16866)">
<path d="M14.1219 42.4585H0.941458C0.691768 42.4585 0.452304 42.3633 0.275747 42.1939C0.0991891 42.0245 0 41.7947 0 41.5551V19.8751C0 19.6356 0.0991891 19.4058 0.275747 19.2364C0.452304 19.067 0.691768 18.9718 0.941458 18.9718H14.1219C14.3716 18.9718 14.611 19.067 14.7876 19.2364C14.9641 19.4058 15.0633 19.6356 15.0633 19.8751V41.5551C15.0633 41.7947 14.9641 42.0245 14.7876 42.1939C14.611 42.3633 14.3716 42.4585 14.1219 42.4585ZM1.88292 40.6518H13.1804V20.7785H1.88292V40.6518Z" fill="black"/>
<path d="M37.1873 40.6518H19.7703C18.0286 40.6518 14.8653 39.9328 13.455 38.5814C13.2835 38.411 13.1886 38.1828 13.1908 37.946C13.1929 37.7091 13.2919 37.4826 13.4665 37.3151C13.641 37.1476 13.8772 37.0526 14.124 37.0505C14.3709 37.0485 14.6087 37.1395 14.7862 37.3041C15.6769 38.1586 18.2395 38.847 19.7684 38.847H37.1854C38.4827 38.847 39.5391 37.8334 39.5391 36.5886C39.5391 35.9671 39.2755 35.3854 38.7953 34.95C38.6649 34.8321 38.5723 34.6809 38.5286 34.5141C38.4848 34.3474 38.4916 34.1722 38.5482 34.0091C38.6048 33.8459 38.7088 33.7017 38.848 33.5935C38.9872 33.4852 39.1558 33.4174 39.3338 33.3981C39.9066 33.3365 40.4359 33.0753 40.8212 32.6639C41.2065 32.2526 41.421 31.7199 41.4239 31.1668C41.4239 30.5453 41.1603 29.9636 40.6801 29.5282C40.5497 29.4103 40.4571 29.259 40.4134 29.0923C40.3696 28.9256 40.3764 28.7504 40.433 28.5872C40.4896 28.4241 40.5936 28.2799 40.7328 28.1717C40.872 28.0634 41.0406 27.9956 41.2186 27.9762C41.7911 27.9151 42.3202 27.6542 42.7052 27.2431C43.0902 26.832 43.3043 26.2995 43.3068 25.7468C43.3068 24.9049 42.8135 24.1389 42.0189 23.7486C41.8691 23.6767 41.7423 23.5675 41.6515 23.4324C41.5608 23.2974 41.5094 23.1415 41.5029 22.9809C41.4964 22.8203 41.5348 22.661 41.6143 22.5196C41.6938 22.3782 41.8114 22.2598 41.9548 22.1768C42.8003 21.6746 43.3068 20.8146 43.3068 19.8752C43.3068 18.381 42.0396 17.1652 40.4824 17.1652H27.302C27.1499 17.1644 27.0002 17.1285 26.8656 17.0604C26.7311 16.9923 26.6157 16.894 26.5292 16.7739C26.4427 16.6539 26.3877 16.5156 26.3688 16.3707C26.3499 16.2259 26.3678 16.0788 26.4208 15.942C26.4396 15.8933 28.2434 11.3097 28.2434 8.13182C28.2434 5.1743 25.5095 2.71182 24.4776 2.71182C23.6661 2.71182 22.9863 2.99546 22.5947 3.20323V9.03515C22.5945 9.16553 22.565 9.29433 22.5081 9.41274L16.8593 21.1561C16.7693 21.3419 16.6168 21.4934 16.4263 21.5861L14.5433 22.4894C14.4327 22.5424 14.3122 22.574 14.1889 22.5824C14.0655 22.5907 13.9416 22.5757 13.8243 22.5381C13.707 22.5005 13.5985 22.4412 13.5051 22.3634C13.4117 22.2856 13.3352 22.1909 13.2799 22.0847C13.2246 21.9785 13.1917 21.863 13.183 21.7446C13.1743 21.6262 13.19 21.5073 13.2291 21.3948C13.2683 21.2822 13.3302 21.1781 13.4113 21.0885C13.4923 20.9989 13.591 20.9255 13.7017 20.8724L15.289 20.1118L20.7118 8.83642V2.71182C20.7118 2.4372 20.8417 2.17885 21.0658 2.00541C22.0556 1.30625 23.2486 0.921553 24.4776 0.905151C26.6561 0.905151 30.1264 4.21316 30.1264 8.13182C30.1264 10.6033 29.2037 13.6801 28.6294 15.3585H40.4824C43.0771 15.3585 45.1897 17.3856 45.1897 19.8752C45.1897 21.0152 44.7472 22.0847 43.9658 22.9013C44.7397 23.6475 45.1897 24.661 45.1897 25.7468C45.189 26.4967 44.9713 27.2316 44.5606 27.8697C44.15 28.5077 43.5627 29.0237 42.8643 29.3601C43.3617 30.3188 43.4428 31.4275 43.0898 32.4434C42.7369 33.4593 41.9787 34.2996 40.9814 34.7802C41.3002 35.4 41.4492 36.0875 41.4144 36.7779C41.3796 37.4683 41.1622 38.1388 40.7826 38.7263C40.403 39.3137 39.8738 39.7988 39.2448 40.1356C38.6157 40.4725 37.9077 40.6502 37.1873 40.6518V40.6518Z" fill="black"/>
</g>
<defs>
<clipPath id="clip0_3412_16866">
<rect width="45.19" height="43.36" fill="white"/>
</clipPath>
</defs>
</svg>
