<svg width="80" height="80" viewBox="0 0 80 80" fill="none" xmlns="http://www.w3.org/2000/svg">
<circle cx="40" cy="40" r="40" fill="white"/>
<circle cx="40" cy="40" r="39.5" stroke="black" stroke-opacity="0.2"/>
<path d="M61.2518 17.8499H48.0704C47.7809 17.8499 47.5032 17.9651 47.2985 18.17C47.0939 18.375 46.9789 18.6529 46.9789 18.9426V41.5675C46.9789 41.8573 47.0939 42.1352 47.2985 42.3401C47.5032 42.5451 47.7809 42.6603 48.0704 42.6603H61.2518C61.5414 42.6603 61.819 42.5451 62.0237 42.3401C62.2284 42.1352 62.3434 41.8573 62.3434 41.5675V18.9426C62.3434 18.6529 62.2284 18.375 62.0237 18.17C61.819 17.9651 61.5414 17.8499 61.2518 17.8499ZM49.162 40.4748V20.0353H60.1603V40.4748H49.162Z" fill="#252525" stroke="#252525" stroke-width="0.3"/>
<path d="M25.0029 19.7352L25.0033 19.7352H42.4216C43.31 19.7352 44.5513 19.9259 45.7478 20.2933C46.9413 20.6598 48.1125 21.209 48.8434 21.9398L48.8453 21.9417L48.8453 21.9418C49.0441 22.1479 49.1541 22.4239 49.1516 22.7103C49.1491 22.9967 49.0344 23.2708 48.832 23.4734C48.6296 23.676 48.3559 23.791 48.0696 23.7935C47.7833 23.796 47.5076 23.6858 47.3017 23.4867L47.2999 23.4849C46.8819 23.0664 46.0488 22.6725 45.1099 22.3827C44.1765 22.0947 43.1689 21.9187 42.4235 21.9187H25.0052C23.7908 21.9187 22.8014 22.9091 22.8014 24.1255C22.8014 24.732 23.0474 25.2999 23.4981 25.7265C23.6493 25.8691 23.7566 26.0521 23.8074 26.2538C23.8582 26.4555 23.8503 26.6675 23.7846 26.8648C23.719 27.0622 23.5984 27.2367 23.437 27.3677C23.2755 27.4987 23.08 27.5807 22.8735 27.6042L22.8733 27.6042C22.3371 27.6643 21.8415 27.9195 21.4807 28.3214C21.12 28.7233 20.9192 29.2437 20.9164 29.784C20.9165 30.3904 21.1626 30.9582 21.6133 31.3847C21.7645 31.5274 21.8717 31.7103 21.9225 31.9119C21.9732 32.1136 21.9653 32.3256 21.8997 32.523C21.8341 32.7203 21.7135 32.8948 21.552 33.0258C21.3906 33.1568 21.1951 33.2389 20.9886 33.2623L20.9883 33.2623C20.4524 33.3221 19.9571 33.577 19.5966 33.9786C19.2363 34.3801 19.0358 34.9002 19.0334 35.4401C19.0334 36.261 19.494 37.0091 20.2391 37.3913C20.4127 37.4784 20.5597 37.6106 20.6649 37.7739C20.7701 37.9374 20.8297 38.1261 20.8373 38.3205C20.8449 38.5148 20.8002 38.7077 20.708 38.8789C20.6159 39.0498 20.4798 39.1929 20.3138 39.2933C19.5118 39.7908 19.0334 40.6404 19.0334 41.5674C19.0334 43.044 20.2337 44.2456 21.708 44.2456H34.8893H34.8901C35.0664 44.2464 35.2399 44.2899 35.3958 44.3723C35.5517 44.4546 35.6854 44.5734 35.7856 44.7186C35.8859 44.8637 35.9496 45.031 35.9715 45.206C35.9933 45.381 35.9727 45.5587 35.9113 45.724C35.9113 45.7241 35.9113 45.7242 35.9112 45.7242L35.7706 45.672L35.7691 45.6761C35.7068 45.8426 33.9478 50.5478 33.9478 53.8226C33.9478 56.909 36.682 59.4788 37.7139 59.4788C38.5255 59.4788 39.2053 59.1828 39.597 58.966L25.0029 19.7352ZM25.0029 19.7352C24.257 19.737 23.5238 19.929 22.8725 20.293C22.2212 20.657 21.6732 21.181 21.2802 21.8157C20.8872 22.4504 20.6621 23.1749 20.6261 23.9208C20.5924 24.6178 20.725 25.3122 21.0119 25.9467C20.043 26.4753 19.308 27.3527 18.958 28.404C18.608 29.4553 18.6702 30.5985 19.1284 31.6032C18.4622 31.9666 17.9012 32.498 17.5017 33.1458C17.0765 33.8352 16.851 34.6294 16.8503 35.4397V35.4399C16.8503 36.5646 17.2786 37.6178 18.0199 38.4133C17.2717 39.2788 16.8503 40.3885 16.8503 41.5674C16.8503 44.2482 19.0301 46.431 21.708 46.431H33.3553C32.7784 48.2203 31.9148 51.3119 31.9148 53.8226C31.9148 55.9092 32.7995 57.8275 33.9569 59.2228C34.536 59.9209 35.1862 60.4916 35.8337 60.8888C36.4793 61.2849 37.132 61.5143 37.7139 61.5143L37.716 61.5142C38.9765 61.4967 40.1999 61.085 41.215 60.3368L41.2151 60.3369L41.2203 60.3327C41.4792 60.1236 41.63 59.8113 41.63 59.4788V53.1202L47.0174 41.4311L48.5577 40.6609C48.686 40.5967 48.8004 40.5079 48.8944 40.3995C48.9884 40.2911 49.0602 40.1652 49.1055 40.0291C49.1509 39.8929 49.1691 39.7492 49.159 39.606C49.1489 39.4628 49.1107 39.323 49.0467 39.1946C48.9826 39.0662 48.8939 38.9517 48.7857 38.8576C48.6774 38.7635 48.5516 38.6916 48.4156 38.6461C48.2796 38.6007 48.1359 38.5825 47.9929 38.5926C47.8498 38.6027 47.7101 38.6409 47.5818 38.7051L47.5818 38.7051L45.6987 39.6478L45.698 39.6482C45.4774 39.7602 45.3009 39.9431 45.1967 40.1675L45.1966 40.1679L39.5474 52.4231L39.5473 52.4231C39.4814 52.5663 39.4472 52.7221 39.447 52.8797V52.8799V58.8765L25.0029 19.7352Z" fill="#252525" stroke="#252525" stroke-width="0.3"/>
</svg>
