<svg width="52" height="52" viewBox="0 0 52 52" fill="none" xmlns="http://www.w3.org/2000/svg">
<circle cx="26" cy="26" r="25" stroke="#E4E4E4"/>
<path d="M16.7773 31.7983C18.5452 32.9201 20.6026 33.5128 22.7268 33.5128C25.8376 33.5128 28.6882 32.3178 30.7543 30.1483C32.7314 28.0718 33.819 25.2816 33.7649 22.4501C34.5143 21.8088 35.3958 20.5844 35.3958 19.391C35.3958 18.9336 34.8994 18.6432 34.4968 18.8763C33.7927 19.29 33.1507 19.3982 32.4903 19.2128C31.1418 17.8985 29.1345 17.6216 27.4431 18.5334C25.9649 19.329 25.143 20.7849 25.217 22.3761C22.7196 22.0714 20.4124 20.8191 18.8037 18.8731C18.5396 18.5557 18.0384 18.5931 17.8283 18.9527C17.0534 20.2797 17.0614 21.8176 17.7352 23.0595C17.4146 23.116 17.2165 23.3857 17.2165 23.6777C17.2165 24.926 17.7782 26.0732 18.6828 26.8561C18.5141 27.0184 18.4584 27.2595 18.53 27.4743C18.9278 28.6693 19.8284 29.6033 20.9542 30.0711C19.7298 30.6559 18.3757 30.8508 17.1704 30.7028C16.5466 30.6185 16.2387 31.457 16.7773 31.7983ZM22.8899 30.2756C23.3362 29.9327 23.0991 29.2182 22.539 29.2063C21.5525 29.1856 20.6543 28.6995 20.095 27.9349C20.3647 27.9174 20.6439 27.876 20.9097 27.8044C21.5151 27.6406 21.4865 26.767 20.8715 26.6437C19.7553 26.4193 18.8793 25.6062 18.5507 24.5592C18.8507 24.6332 19.1562 24.6746 19.4609 24.6801C20.0647 24.6833 20.2931 23.9092 19.8006 23.5854C18.6907 22.8543 18.2174 21.563 18.5308 20.3489C20.4689 22.3125 23.0983 23.4955 25.8797 23.6292C26.2783 23.6538 26.5775 23.2791 26.49 22.8996C26.112 21.2615 27.027 20.1134 28.0095 19.5844C28.9818 19.0593 30.5427 18.8954 31.7393 20.1508C32.0949 20.5256 33.2947 20.5399 33.9049 20.3975C33.6312 20.913 33.2103 21.4023 32.8165 21.6776C32.6486 21.7953 32.5524 21.991 32.5627 22.1955C32.6908 24.809 31.717 27.4074 29.8911 29.324C28.0517 31.2549 25.5082 32.3186 22.7276 32.3186C21.6217 32.3186 20.5373 32.1388 19.5126 31.792C20.7378 31.5549 21.9018 31.0361 22.8899 30.2756Z" fill="black"/>
</svg>
