<svg width="37" height="37" viewBox="0 0 37 37" fill="none" xmlns="http://www.w3.org/2000/svg">
<circle cx="18.5" cy="18.5" r="18.5" fill="white"/>
<path d="M8.11963 26.8V19.52C8.11963 18.948 8.58763 18.48 9.15963 18.48H15.9196V27.84H9.15963C8.58763 27.84 8.11963 27.372 8.11963 26.8Z" fill="#F9CD9E"/>
<path d="M27.879 27.8401C27.879 28.7241 27.203 29.4001 26.319 29.4001H18.207C17.323 29.4001 16.439 29.1921 15.659 28.8801C14.983 28.6201 14.359 28.2041 13.839 27.7361C12.695 26.7481 11.967 25.3441 11.811 23.7841C11.603 21.7041 12.487 19.9361 13.839 18.6881C14.307 18.2721 14.827 17.8561 15.399 17.5441C19.039 15.3601 18.519 8.6001 18.519 8.6001H19.559C20.703 8.6001 21.639 9.5361 21.639 10.6801V15.8801C21.639 16.4521 22.107 16.9201 22.679 16.9201H25.799V26.2801H26.319C27.203 26.2801 27.879 26.9561 27.879 27.8401Z" fill="#F9CD9E"/>
<g style="mix-blend-mode:hard-light" opacity="0.15">
<path d="M22.6805 16.9201H21.6405C21.0685 16.9201 20.6005 16.4521 20.6005 15.8801V10.6801C20.6005 9.5361 19.6645 8.6001 18.5205 8.6001H19.5605C20.7045 8.6001 21.6405 9.5361 21.6405 10.6801V15.8801C21.6405 16.4521 22.1085 16.9201 22.6805 16.9201ZM26.7885 26.3321C26.8405 26.4881 26.8405 26.6441 26.8405 26.8001C26.8405 27.6321 26.1645 28.3601 25.2805 28.3601H17.8445C16.3365 28.3601 15.0885 27.3201 14.7765 25.8641C14.2045 22.9001 13.8925 19.4161 13.8405 18.6361C13.8405 18.5321 13.8405 18.4801 13.8405 18.4801V27.4241C13.5805 27.2681 13.3205 27.1121 13.0605 26.9041C13.2685 27.1641 13.5285 27.4241 13.8405 27.6841C13.8925 27.7361 13.9445 27.7881 13.9965 27.8401C14.0485 27.8921 14.1005 27.9441 14.1525 27.9961C14.5165 28.2561 14.8805 28.5161 15.2445 28.7241C15.2965 28.7241 15.3485 28.7761 15.3485 28.7761C15.4525 28.8281 15.5045 28.8801 15.6085 28.8801C16.3885 29.1921 17.2725 29.4001 18.1565 29.4001H26.3205C27.1525 29.4001 27.8805 28.7241 27.8805 27.8401C27.8805 27.1121 27.4125 26.5401 26.7885 26.3321Z" fill="#1E1E1E"/>
</g>
<path d="M13.3196 28.88H9.15963C8.58763 28.88 8.11963 28.412 8.11963 27.84V19C8.11963 18.428 8.58763 17.96 9.15963 17.96H13.3196C13.6316 17.96 13.8396 18.168 13.8396 18.48V28.36C13.8396 28.672 13.6316 28.88 13.3196 28.88Z" fill="#4EAD66"/>
<path d="M26.3197 26.2802H25.2797C24.4477 26.2802 23.7197 25.6042 23.7197 24.7202C23.7197 23.8882 24.3957 23.1602 25.2797 23.1602H26.3197C27.1517 23.1602 27.8797 23.8362 27.8797 24.7202C27.8797 25.6042 27.2037 26.2802 26.3197 26.2802Z" fill="#F9CD9E"/>
<path opacity="0.15" d="M25.5403 26.2802H26.3203C27.1523 26.2802 27.8803 25.6042 27.8803 24.7202C27.8803 24.1482 27.5683 23.6802 27.1523 23.4202C27.3083 23.6282 27.3603 23.9402 27.3603 24.2002C27.3603 25.0322 26.6843 25.7602 25.8003 25.7602H25.5403C25.3843 25.7602 25.2803 25.8642 25.2803 26.0202C25.2803 26.1762 25.3843 26.2802 25.5403 26.2802Z" fill="#1E1E1E"/>
<path d="M26.3197 23.16H25.2797C24.4477 23.16 23.7197 22.484 23.7197 21.6C23.7197 20.768 24.3957 20.04 25.2797 20.04H26.3197C27.1517 20.04 27.8797 20.716 27.8797 21.6C27.8797 22.484 27.2037 23.16 26.3197 23.16Z" fill="#F9CD9E"/>
<path opacity="0.15" d="M25.5403 23.16H26.3203C27.1523 23.16 27.8803 22.484 27.8803 21.6C27.8803 21.028 27.5683 20.56 27.1523 20.3C27.3083 20.508 27.3603 20.82 27.3603 21.08C27.3603 21.912 26.6843 22.64 25.8003 22.64H25.5403C25.3843 22.64 25.2803 22.744 25.2803 22.9C25.2803 23.056 25.3843 23.16 25.5403 23.16Z" fill="#1E1E1E"/>
<path d="M26.3197 20.0402H25.2797C24.4477 20.0402 23.7197 19.3642 23.7197 18.4802C23.7197 17.6482 24.3957 16.9202 25.2797 16.9202H26.3197C27.1517 16.9202 27.8797 17.5962 27.8797 18.4802C27.8797 19.3642 27.2037 20.0402 26.3197 20.0402Z" fill="#F9CD9E"/>
<path opacity="0.15" d="M25.5403 20.0399H26.3203C27.1523 20.0399 27.8803 19.3639 27.8803 18.4799C27.8803 17.9079 27.5683 17.4399 27.1523 17.1799C27.3083 17.3879 27.3603 17.6999 27.3603 17.9599C27.3603 18.7919 26.6843 19.5199 25.8003 19.5199H25.5403C25.3843 19.5199 25.2803 19.6239 25.2803 19.7799C25.2803 19.9359 25.3843 20.0399 25.5403 20.0399Z" fill="#1E1E1E"/>
<g style="mix-blend-mode:hard-light" opacity="0.2">
<path d="M11.2402 27.84C11.8146 27.84 12.2802 27.3744 12.2802 26.8C12.2802 26.2256 11.8146 25.76 11.2402 25.76C10.6658 25.76 10.2002 26.2256 10.2002 26.8C10.2002 27.3744 10.6658 27.84 11.2402 27.84Z" fill="#1E1E1E"/>
</g>
</svg>
