<svg width="47" height="47" viewBox="0 0 47 47" fill="none" xmlns="http://www.w3.org/2000/svg">
<circle cx="23.5" cy="23.5" r="23.5" fill="white"/>
<path d="M16.8127 20.639C17.09 20.4865 17.4165 20.4502 17.7206 20.538C18.0246 20.6259 18.2814 20.8308 18.4346 21.1077L19.3252 22.7249L24.294 20.189L22.2924 16.4999C22.1768 16.3379 22.0969 16.1533 22.0579 15.9581C22.019 15.763 22.0219 15.5618 22.0665 15.3678C22.111 15.1739 22.1963 14.9916 22.3165 14.833C22.4368 14.6745 22.5893 14.5433 22.7641 14.4481C22.9388 14.3528 23.1318 14.2958 23.3302 14.2807C23.5286 14.2656 23.728 14.2927 23.9152 14.3604C24.1023 14.4281 24.2729 14.5347 24.4158 14.6732C24.5587 14.8117 24.6705 14.979 24.744 15.164L26.3659 18.1405L26.4596 18.314L28.6534 22.3405L30.608 20.6436C31.0298 20.2229 31.6013 19.9866 32.1971 19.9866C32.7929 19.9866 33.3644 20.2229 33.7862 20.6436C33.8881 20.7456 33.9453 20.8839 33.9453 21.028C33.9453 21.1722 33.8881 21.3104 33.7862 21.4124L32.6893 22.5186C31.1284 24.0983 30.8143 24.703 31.1143 26.6577L31.583 29.3952L23.8768 33.614L22.9159 31.8468C22.4804 31.815 22.0598 31.6742 21.6929 31.4375C21.326 31.2008 21.0244 30.8757 20.8159 30.4921L16.7237 22.9921L16.344 22.2936C16.2633 22.1549 16.2113 22.0013 16.1913 21.8421C16.1712 21.6829 16.1834 21.5212 16.2271 21.3668C16.2709 21.2124 16.3453 21.0683 16.4459 20.9433C16.5465 20.8183 16.6713 20.7147 16.8127 20.639Z" fill="#FFBD00" stroke="white" stroke-width="0.6" stroke-linecap="round" stroke-linejoin="round"/>
<path d="M22.6061 22.9312L18.6967 15.75C18.5281 15.4262 18.492 15.0495 18.5961 14.6996C18.7002 14.3497 18.9363 14.054 19.2545 13.875C19.5783 13.7064 19.955 13.6704 20.3049 13.7744C20.6548 13.8785 20.9505 14.1146 21.1295 14.4328L25.0576 21.5953" fill="#FFBD00"/>
<path d="M22.6061 22.9312L18.6967 15.75C18.5281 15.4262 18.492 15.0495 18.5961 14.6996C18.7002 14.3497 18.9363 14.054 19.2545 13.875C19.5783 13.7064 19.955 13.6704 20.3049 13.7744C20.6548 13.8785 20.9505 14.1146 21.1295 14.4328L25.0576 21.5953" stroke="white" stroke-width="0.6" stroke-linecap="round" stroke-linejoin="round"/>
<path d="M32.136 29.0039L34.4248 33.207L25.6685 37.9752L23.3798 33.772L32.136 29.0039Z" fill="#1E1E1E" stroke="#1E1E1E" stroke-width="0.6" stroke-linecap="round" stroke-linejoin="round"/>
<path d="M30.946 33.0171C30.5239 32.8927 30.2826 32.4496 30.4071 32.0274C30.5316 31.6053 30.9747 31.364 31.3968 31.4885C31.8189 31.613 32.0602 32.0561 31.9357 32.4782C31.8113 32.9003 31.3681 33.1416 30.946 33.0171Z" fill="#1E1E1E"/>
<path d="M12.2939 22.5937C12.4147 22.4927 12.5542 22.4165 12.7045 22.3696C12.8548 22.3227 13.013 22.306 13.1698 22.3203C13.3266 22.3347 13.479 22.3799 13.6183 22.4534C13.7575 22.5268 13.8809 22.6271 13.9814 22.7484L15.1673 24.1546L19.5454 20.7187L16.8689 17.4984C16.7245 17.3617 16.6107 17.1961 16.5351 17.0123C16.4595 16.8285 16.4236 16.6307 16.43 16.432C16.4364 16.2334 16.4848 16.0383 16.572 15.8597C16.6593 15.6811 16.7834 15.5231 16.9362 15.396C17.089 15.2689 17.267 15.1756 17.4585 15.1223C17.65 15.069 17.8506 15.0569 18.0471 15.0868C18.2436 15.1167 18.4315 15.1879 18.5985 15.2958C18.7655 15.4036 18.9077 15.5456 19.0157 15.7124L21.186 18.3187L21.3126 18.4734L24.247 21.9984L25.8126 19.9593C25.9748 19.7095 26.1849 19.4943 26.4309 19.3263C26.6768 19.1583 26.9537 19.0408 27.2454 18.9806C27.5371 18.9204 27.8379 18.9188 28.1303 18.9757C28.4226 19.0327 28.7008 19.1472 28.9485 19.3124C29.0096 19.3525 29.0619 19.4045 29.1024 19.4652C29.143 19.526 29.1708 19.5942 29.1844 19.666C29.1979 19.7377 29.1969 19.8115 29.1814 19.8828C29.1658 19.9541 29.1361 20.0216 29.0939 20.0812L28.2314 21.3796C27.0032 23.2312 26.8251 23.8874 27.486 25.7484L28.4657 28.3406L21.7204 33.9656L20.4314 32.4187C19.9933 32.4738 19.5484 32.4166 19.1384 32.2526C18.7285 32.0886 18.3669 31.8232 18.0876 31.4812L12.6126 24.9187L12.1017 24.3046C11.9991 24.1809 11.9225 24.0377 11.8765 23.8837C11.8305 23.7297 11.8161 23.568 11.834 23.4083C11.852 23.2486 11.9019 23.0941 11.9809 22.9541C12.06 22.8142 12.1664 22.6916 12.2939 22.5937Z" fill="#FFBD00" stroke="white" stroke-width="0.6" stroke-linecap="round" stroke-linejoin="round"/>
<path d="M18.4205 23.7376L13.1893 17.4376C12.9559 17.1517 12.8443 16.7855 12.8785 16.4181C12.9127 16.0507 13.09 15.7114 13.3721 15.4735C13.658 15.2402 14.0241 15.1286 14.3915 15.1628C14.759 15.197 15.0982 15.3742 15.3361 15.6563L20.5674 21.9516M16.1846 25.4063L11.8205 20.1563C11.6321 19.8744 11.562 19.5298 11.6251 19.1967C11.6882 18.8636 11.8796 18.5685 12.158 18.3751C12.3998 18.1386 12.7245 18.0062 13.0627 18.0062C13.4009 18.0062 13.7256 18.1386 13.9674 18.3751L18.3127 23.6157" fill="#FFBD00"/>
<path d="M18.4205 23.7376L13.1893 17.4376C12.9559 17.1517 12.8443 16.7855 12.8785 16.4181C12.9127 16.0507 13.09 15.7114 13.3721 15.4735C13.658 15.2402 14.0241 15.1286 14.3915 15.1628C14.759 15.197 15.0982 15.3742 15.3361 15.6563L20.5674 21.9516M16.1846 25.4063L11.8205 20.1563C11.6321 19.8744 11.562 19.5298 11.6251 19.1967C11.6882 18.8636 11.8796 18.5685 12.158 18.3751C12.3998 18.1386 12.7245 18.0062 13.0627 18.0062C13.4009 18.0062 13.7256 18.1386 13.9674 18.3751L18.3127 23.6157" stroke="white" stroke-width="0.6" stroke-linecap="round" stroke-linejoin="round"/>
<path d="M28.9415 27.8485L32.0024 31.5276L24.338 37.9043L21.277 34.2252L28.9415 27.8485Z" fill="#1E1E1E" stroke="#1E1E1E" stroke-width="0.6" stroke-linecap="round" stroke-linejoin="round"/>
<path opacity="0.15" d="M24.2603 37.6283L21.709 34.5618L23.8566 32.775L26.4079 35.8415L24.2603 37.6283Z" fill="#1E1E1E"/>
<path d="M28.5638 32.0109C28.1256 31.9707 27.8029 31.5828 27.8431 31.1446C27.8833 30.7063 28.2711 30.3836 28.7094 30.4238C29.1476 30.464 29.4703 30.8519 29.4302 31.2901C29.39 31.7284 29.0021 32.0511 28.5638 32.0109Z" fill="#1E1E1E"/>
<path d="M26.6141 14.311L29.4688 13.3735" stroke="#00B5B4" stroke-width="0.6" stroke-linecap="round" stroke-linejoin="round"/>
<path d="M25.9485 12.7548L27.2329 10.7954" stroke="#00B5B4" stroke-width="0.6" stroke-linecap="round" stroke-linejoin="round"/>
<path d="M24.2607 12.7733L23.6514 9.85303" stroke="#00B5B4" stroke-width="0.6" stroke-linecap="round" stroke-linejoin="round"/>
</svg>
