<svg width="24" height="24" viewBox="0 0 24 24" fill="none" xmlns="http://www.w3.org/2000/svg">
<path d="M18.6155 0.713379H5.38552C2.59646 0.713379 0.327148 2.98291 0.327148 5.77241V15.1111C0.327148 17.9006 2.59646 20.1697 5.38552 20.1697H6.40337H10.1864L9.76315 20.5927C9.69052 20.6658 9.64918 20.7644 9.64918 20.8681V22.8141C9.64918 23.0287 9.82308 23.2026 10.0383 23.2026H11.9839C12.0874 23.2026 12.1862 23.1615 12.2593 23.0887L15.1923 20.1552C15.2242 20.1638 15.2573 20.1697 15.2918 20.1697H18.6153C19.0274 20.1697 19.4275 20.1191 19.8112 20.0253C22.0247 19.4865 23.673 17.4882 23.673 15.1111V5.77241C23.6735 2.98291 21.4046 0.713379 18.6155 0.713379ZM9.49255 15.4346C9.42715 15.4775 9.3519 15.5 9.27643 15.5C9.21365 15.5 9.15065 15.4849 9.0929 15.4538C8.96668 15.386 8.88771 15.2548 8.88771 15.1111V5.77241C8.88771 5.62847 8.96668 5.49744 9.0929 5.42941C9.21999 5.36116 9.37159 5.36882 9.49255 5.44822L16.4967 10.1181C16.6043 10.1903 16.6697 10.3119 16.6697 10.4414C16.6697 10.5716 16.6043 10.693 16.4967 10.7652L9.49255 15.4346ZM11.8227 22.4241H10.4275V21.0287L16.1843 15.2718L17.58 16.667L11.8227 22.4241ZM18.1299 16.1171L16.7345 14.7217L17.821 13.6352L19.216 15.031L18.1299 16.1171Z" fill="#8D8D8D"/>
</svg>
