<svg width="40" height="40" viewBox="0 0 40 40" fill="none" xmlns="http://www.w3.org/2000/svg">
<path d="M16.665 23.4052L25.1125 17.7733L16.665 12.1421V23.4052Z" fill="#00B5B4"/>
<path d="M29.4505 3.87598H10.5505C6.56609 3.87598 3.32422 7.11816 3.32422 11.1032V24.4441C3.32422 28.4291 6.56609 31.6707 10.5505 31.6707H12.0045H17.4089L16.8042 32.275C16.7005 32.3794 16.6414 32.5204 16.6414 32.6685V35.4485C16.6414 35.755 16.8898 36.0035 17.1973 36.0035H19.9767C20.1245 36.0035 20.2658 35.9447 20.3702 35.8407L24.5602 31.65C24.6058 31.6622 24.653 31.6707 24.7023 31.6707H29.4502C30.0389 31.6707 30.6105 31.5985 31.1586 31.4644C34.3208 30.6947 36.6755 27.84 36.6755 24.4441V11.1032C36.6761 7.11816 33.4348 3.87598 29.4505 3.87598ZM16.4177 24.9063C16.3242 24.9675 16.2167 24.9997 16.1089 24.9997C16.0192 24.9997 15.9292 24.9782 15.8467 24.9338C15.6664 24.8369 15.5536 24.6494 15.5536 24.4441V11.1032C15.5536 10.8975 15.6664 10.7104 15.8467 10.6132C16.0283 10.5157 16.2448 10.5266 16.4177 10.64L26.4236 17.3113C26.5773 17.4144 26.6708 17.5882 26.6708 17.7732C26.6708 17.9591 26.5773 18.1325 26.4236 18.2357L16.4177 24.9063ZM19.7464 34.8913H17.7533V32.8979L25.9773 24.6738L27.9711 26.6669L19.7464 34.8913ZM28.7567 25.8813L26.7633 23.8879L28.3155 22.3357L30.3083 24.3297L28.7567 25.8813Z" fill="white"/>
</svg>
