<svg width="35" height="36" viewBox="0 0 35 36" fill="none" xmlns="http://www.w3.org/2000/svg">
<path d="M26.25 4.875H4.37504C3.50479 4.875 2.67019 5.2207 2.05484 5.83606C1.43949 6.45141 1.09378 7.28601 1.09378 8.15625V23.4688C1.09156 23.9417 1.19625 24.4091 1.40003 24.8359C1.47744 24.9986 1.59382 25.1396 1.73883 25.2465C1.88385 25.3533 2.05301 25.4227 2.23128 25.4484H2.38441C2.53971 25.4482 2.69318 25.415 2.83462 25.3509C2.97606 25.2867 3.10223 25.1932 3.20472 25.0766L10.861 16.4031L15.0938 21.6859C15.1858 21.7999 15.2998 21.8942 15.429 21.9633C15.5581 22.0324 15.6998 22.0748 15.8457 22.0881C15.9916 22.1013 16.1387 22.0851 16.2782 22.0405C16.4177 21.9958 16.5468 21.9236 16.6578 21.8281L20.7813 18.35L24.4344 21.4781C24.5901 21.6122 24.7804 21.6997 24.9835 21.7307C25.1866 21.7617 25.3943 21.7348 25.5828 21.6531C26.4065 21.286 27.3246 21.1865 28.2079 21.3688C28.3686 21.4016 28.5347 21.3979 28.6938 21.3578C28.8529 21.3178 29.001 21.2424 29.127 21.1374C29.2531 21.0323 29.3539 20.9003 29.422 20.751C29.49 20.6017 29.5237 20.439 29.5204 20.275V8.15625C29.5204 7.2879 29.1762 6.45495 28.5632 5.83991C27.9502 5.22487 27.1184 4.87789 26.25 4.875Z" fill="#8D8D8D"/>
<path d="M25.8566 19.8158L21.4816 16.0752C21.2835 15.9057 21.0314 15.8126 20.7707 15.8126C20.51 15.8126 20.2579 15.9057 20.0597 16.0752L16.1113 19.4549L11.7363 13.9861C11.6353 13.8742 11.5122 13.7843 11.3748 13.7222C11.2374 13.6601 11.0886 13.6271 10.9379 13.6252C10.7789 13.6222 10.6212 13.654 10.4757 13.7182C10.3303 13.7824 10.2006 13.8776 10.0957 13.9971L1.56443 23.6439C1.42608 23.8017 1.33603 23.9959 1.305 24.2034C1.27397 24.4109 1.30328 24.6229 1.38943 24.8143C1.64821 25.3899 2.06755 25.8788 2.59716 26.2222C3.12677 26.5655 3.74418 26.7489 4.37537 26.7502H21.8754C22.1654 26.7502 22.4436 26.635 22.6488 26.4298C22.8539 26.2247 22.9691 25.9465 22.9691 25.6564C22.9687 25.0817 23.0814 24.5126 23.301 23.9815C23.5206 23.4504 23.8427 22.9677 24.2488 22.5611C24.6316 22.1762 25.0845 21.868 25.5832 21.6533C25.7546 21.5806 25.9046 21.4653 26.019 21.3184C26.1334 21.1714 26.2084 20.9977 26.2369 20.8137C26.2653 20.6297 26.2464 20.4415 26.1817 20.2668C26.1171 20.0922 26.009 19.937 25.8676 19.8158H25.8566Z" fill="#212C31"/>
<path d="M27.344 32.2189C26.046 32.22 24.7768 31.836 23.697 31.1157C22.6172 30.3953 21.7753 29.3709 21.2777 28.1721C20.7801 26.9732 20.6492 25.6537 20.9016 24.3804C21.154 23.1072 21.7783 21.9373 22.6956 21.0189C23.3051 20.4088 24.0288 19.9247 24.8255 19.5945C25.6222 19.2642 26.4762 19.0942 27.3386 19.0942C28.201 19.0942 29.0549 19.2642 29.8516 19.5945C30.6483 19.9247 31.3721 20.4088 31.9815 21.0189C32.5917 21.6284 33.0757 22.3522 33.406 23.1489C33.7362 23.9455 33.9062 24.7995 33.9062 25.6619C33.9062 26.5243 33.7362 27.3783 33.406 28.1749C33.0757 28.9716 32.5917 29.6954 31.9815 30.3049C30.7502 31.5319 29.0824 32.2203 27.344 32.2189ZM27.344 21.2814C26.1872 21.2834 25.0782 21.7435 24.2597 22.5611C23.8512 22.9676 23.5272 23.4508 23.306 23.983C23.0849 24.5151 22.971 25.0857 22.971 25.6619C22.971 26.2381 23.0849 26.8087 23.306 27.3408C23.5272 27.873 23.8512 28.3562 24.2597 28.7627C25.082 29.5836 26.1968 30.0442 27.3588 30.0432C28.5208 30.0422 29.6348 29.5796 30.4558 28.7572C31.2767 27.9348 31.7373 26.82 31.7363 25.658C31.7352 24.496 31.2727 23.382 30.4503 22.5611C29.8546 21.9589 29.0931 21.5477 28.2628 21.3799C27.9609 21.3147 27.6529 21.2817 27.344 21.2814Z" fill="#8D8D8D"/>
<path d="M23.4722 30.622C23.2549 30.6232 23.0422 30.5598 22.8612 30.4397C22.6802 30.3196 22.539 30.1483 22.4557 29.9477C22.3724 29.747 22.3507 29.5261 22.3934 29.3131C22.4362 29.1001 22.5414 28.9047 22.6956 28.7517L30.4284 21.0189C30.6377 20.8397 30.9068 20.746 31.1821 20.7567C31.4574 20.7673 31.7185 20.8814 31.9133 21.0762C32.1081 21.271 32.2222 21.5321 32.2328 21.8074C32.2434 22.0827 32.1498 22.3518 31.9706 22.561L24.2378 30.2939C24.0359 30.4999 23.7607 30.6179 23.4722 30.622Z" fill="#8D8D8D"/>
<path d="M17.5 13.625C18.7081 13.625 19.6875 12.6456 19.6875 11.4375C19.6875 10.2294 18.7081 9.25 17.5 9.25C16.2919 9.25 15.3125 10.2294 15.3125 11.4375C15.3125 12.6456 16.2919 13.625 17.5 13.625Z" fill="#8D8D8D"/>
</svg>
