<svg width="40" height="40" viewBox="0 0 40 40" fill="none" xmlns="http://www.w3.org/2000/svg">
<path d="M30 5H5.00004C4.00548 5 3.05165 5.39509 2.34839 6.09835C1.64513 6.80161 1.25004 7.75544 1.25004 8.75V26.25C1.2475 26.7906 1.36715 27.3247 1.60004 27.8125C1.6885 27.9984 1.82151 28.1595 1.98724 28.2817C2.15297 28.4038 2.34629 28.4831 2.55004 28.5125H2.72504C2.90252 28.5123 3.07792 28.4743 3.23957 28.401C3.40121 28.3277 3.5454 28.2208 3.66254 28.0875L12.4125 18.175L17.25 24.2125C17.3552 24.3427 17.4855 24.4505 17.6331 24.5295C17.7807 24.6084 17.9427 24.6569 18.1094 24.6721C18.2761 24.6872 18.4442 24.6687 18.6036 24.6177C18.763 24.5667 18.9106 24.4841 19.0375 24.375L23.75 20.4L27.925 23.975C28.1029 24.1282 28.3204 24.2283 28.5525 24.2637C28.7847 24.299 29.0221 24.2683 29.2375 24.175C30.1789 23.7554 31.2282 23.6418 32.2375 23.85C32.4213 23.8875 32.6111 23.8833 32.7929 23.8375C32.9748 23.7917 33.144 23.7056 33.288 23.5856C33.4321 23.4655 33.5473 23.3146 33.6251 23.144C33.7029 22.9734 33.7413 22.7875 33.7375 22.6V8.75C33.7375 7.7576 33.3442 6.80566 32.6436 6.10276C31.9431 5.39986 30.9924 5.00331 30 5Z" fill="white"/>
<path d="M29.5503 22.0752L24.5503 17.8002C24.3239 17.6066 24.0357 17.5001 23.7378 17.5001C23.4398 17.5001 23.1517 17.6066 22.9253 17.8002L18.4128 21.6627L13.4128 15.4127C13.2973 15.2848 13.1567 15.1821 12.9996 15.1111C12.8426 15.0401 12.6726 15.0024 12.5003 15.0002C12.3186 14.9968 12.1384 15.0331 11.9721 15.1065C11.8059 15.1799 11.6577 15.2887 11.5378 15.4252L1.78778 26.4502C1.62967 26.6305 1.52675 26.8524 1.49128 27.0896C1.45582 27.3267 1.48932 27.5691 1.58778 27.7877C1.88353 28.4457 2.36278 29.0043 2.96805 29.3968C3.57332 29.7892 4.27893 29.9987 5.00028 30.0002H25.0003C25.3318 30.0002 25.6497 29.8685 25.8842 29.6341C26.1186 29.3997 26.2503 29.0817 26.2503 28.7502C26.2498 28.0934 26.3787 27.4429 26.6296 26.836C26.8805 26.229 27.2486 25.6774 27.7128 25.2127C28.1503 24.7728 28.6679 24.4206 29.2378 24.1752C29.4337 24.0921 29.6051 23.9603 29.7359 23.7924C29.8666 23.6245 29.9523 23.426 29.9848 23.2157C30.0174 23.0054 29.9957 22.7902 29.9218 22.5907C29.848 22.3911 29.7244 22.2137 29.5628 22.0752H29.5503Z" fill="#00B5B4"/>
<path d="M31.25 36.2501C29.7666 36.2513 28.3161 35.8125 27.082 34.9893C25.8479 34.166 24.8857 32.9953 24.3171 31.6251C23.7484 30.255 23.5988 28.747 23.8873 27.2918C24.1757 25.8367 24.8892 24.4998 25.9375 23.4501C26.6341 22.7528 27.4613 22.1996 28.3717 21.8222C29.2822 21.4448 30.2582 21.2505 31.2438 21.2505C32.2294 21.2505 33.2054 21.4448 34.1159 21.8222C35.0263 22.1996 35.8535 22.7528 36.55 23.4501C37.2474 24.1467 37.8006 24.9738 38.178 25.8843C38.5554 26.7948 38.7497 27.7708 38.7497 28.7564C38.7497 29.742 38.5554 30.718 38.178 31.6284C37.8006 32.5389 37.2474 33.3661 36.55 34.0626C35.1428 35.465 33.2367 36.2517 31.25 36.2501ZM31.25 23.7501C29.9279 23.7524 28.6605 24.2783 27.725 25.2126C27.2583 25.6772 26.8879 26.2295 26.6352 26.8376C26.3824 27.4457 26.2523 28.0978 26.2523 28.7564C26.2523 29.415 26.3824 30.067 26.6352 30.6752C26.8879 31.2833 27.2583 31.8355 27.725 32.3001C28.6649 33.2383 29.939 33.7648 31.267 33.7636C32.595 33.7624 33.8681 33.2337 34.8063 32.2939C35.7445 31.354 36.2709 30.08 36.2697 28.752C36.2686 27.424 35.7399 26.1508 34.8 25.2126C34.1192 24.5244 33.2489 24.0544 32.3 23.8626C31.955 23.7882 31.603 23.7505 31.25 23.7501Z" fill="#EF3C5E"/>
<path d="M26.8247 34.425C26.5764 34.4264 26.3333 34.3539 26.1264 34.2167C25.9195 34.0794 25.7581 33.8836 25.6629 33.6543C25.5677 33.425 25.543 33.1726 25.5918 32.9291C25.6406 32.6857 25.7609 32.4623 25.9372 32.2875L34.7747 23.45C35.0138 23.2452 35.3214 23.1382 35.636 23.1503C35.9506 23.1625 36.249 23.2929 36.4716 23.5155C36.6942 23.7382 36.8246 24.0366 36.8368 24.3512C36.8489 24.6658 36.7419 24.9734 36.5372 25.2125L27.6997 34.05C27.4689 34.2855 27.1544 34.4203 26.8247 34.425Z" fill="#EF3C5E"/>
<path d="M20 15C21.3807 15 22.5 13.8807 22.5 12.5C22.5 11.1193 21.3807 10 20 10C18.6193 10 17.5 11.1193 17.5 12.5C17.5 13.8807 18.6193 15 20 15Z" fill="#EFEFEF"/>
</svg>
