<svg width="29" height="39" viewBox="0 0 29 39" fill="none" xmlns="http://www.w3.org/2000/svg">
<path fill-rule="evenodd" clip-rule="evenodd" d="M28.203 10.6406V28.5312C28.203 28.5312 28.3593 33.0625 24.9999 35.7969C21.6405 38.4531 17.9686 38.4531 13.9842 37.75C9.99987 37.0469 8.28112 33.9219 6.71862 31.8906C5.15612 29.8594 1.09362 22.125 1.09362 22.125C1.09362 22.125 0.0779978 20.4844 1.0155 19C1.953 17.5156 4.29675 18.1406 5.3905 19.8594C6.48425 21.6562 7.8905 23.9219 7.8905 23.9219C7.8905 23.9219 8.90612 24 8.90612 21.0312V5.71875C8.90612 4.625 9.84362 3.6875 10.9374 3.6875C12.0311 3.6875 12.9686 4.625 12.9686 5.71875V16.8125C12.9686 16.8125 12.9686 17.8281 13.5936 17.8281C14.2186 17.8281 14.453 17.2031 14.453 16.5781V2.28125C14.453 1.1875 15.3905 0.25 16.4843 0.25C17.578 0.25 18.5155 1.1875 18.5155 2.28125V16.8125C18.5155 16.8125 18.3592 17.9062 18.9842 17.9062C19.5311 17.9062 19.7655 17.2812 19.7655 16.6562V5.01562C19.7655 4 20.6249 3.14062 21.6405 3.14062C22.6561 3.14062 23.5155 4 23.5155 5.01562V17.9062C23.5155 17.9062 24.0624 18.7656 24.453 18.2188C24.9218 17.6719 24.6874 16.9688 24.6874 16.1875V10.0156C24.6874 8.84375 24.9999 7.59375 26.4843 7.59375C28.2811 7.59375 28.203 9.3125 28.203 10.6406Z" fill="white"/>
</svg>
