<svg width="28" height="28" viewBox="0 0 28 28" fill="none" xmlns="http://www.w3.org/2000/svg">
<path fill-rule="evenodd" clip-rule="evenodd" d="M23.242 8.14844V20.6719C23.242 20.6719 23.3514 23.8438 20.9998 25.7578C18.6483 27.6172 16.0779 27.6172 13.2889 27.125C10.4998 26.6328 9.29669 24.4453 8.20294 23.0234C7.10919 21.6016 4.26544 16.1875 4.26544 16.1875C4.26544 16.1875 3.5545 15.0391 4.21075 14C4.867 12.9609 6.50763 13.3984 7.27325 14.6016C8.03888 15.8594 9.02325 17.4453 9.02325 17.4453C9.02325 17.4453 9.73419 17.5 9.73419 15.4219V4.70313C9.73419 3.9375 10.3904 3.28125 11.1561 3.28125C11.9217 3.28125 12.5779 3.9375 12.5779 4.70313V12.4688C12.5779 12.4688 12.5779 13.1797 13.0154 13.1797C13.4529 13.1797 13.617 12.7422 13.617 12.3047V2.29688C13.617 1.53125 14.2733 0.875 15.0389 0.875C15.8045 0.875 16.4608 1.53125 16.4608 2.29688V12.4688C16.4608 12.4688 16.3514 13.2344 16.7889 13.2344C17.1717 13.2344 17.3358 12.7969 17.3358 12.3594V4.21094C17.3358 3.5 17.9373 2.89844 18.6483 2.89844C19.3592 2.89844 19.9608 3.5 19.9608 4.21094V13.2344C19.9608 13.2344 20.3436 13.8359 20.617 13.4531C20.9451 13.0703 20.7811 12.5781 20.7811 12.0313V7.71094C20.7811 6.89063 20.9998 6.01563 22.0389 6.01563C23.2967 6.01563 23.242 7.21875 23.242 8.14844Z" fill="#8D8D8D"/>
</svg>
