<svg width="50" height="50" viewBox="0 0 50 50" fill="none" xmlns="http://www.w3.org/2000/svg">
<path d="M26.0422 31.25C26.3281 31.25 26.5625 30.8984 26.5625 30.4688V25.7812C26.5625 25.3516 26.3281 25 26.0422 25H23.9594C23.6719 25 23.4375 25.3516 23.4375 25.7812V30.4688C23.4375 30.8984 23.6719 31.25 23.9578 31.25H26.0422Z" fill="#00B5B4"/>
<path d="M43.75 7.60417H36.9062L35.0781 4.06979C34.2812 2.52917 32.6719 1.5625 30.875 1.5625H19.125C17.3281 1.5625 15.7188 2.52917 14.9219 4.06979L13.0938 7.60417H6.25C3.67188 7.60417 1.5625 9.64323 1.5625 12.1354V19.6875C1.5625 21.0016 2.15625 22.2099 3.125 23.0406C3.79688 23.6297 4.64062 24.0375 5.59375 24.1583L6.25 24.249L20.3125 26.1974V22.7083C20.3125 21.8776 21.0156 21.1979 21.875 21.1979H28.125C28.9844 21.1979 29.6875 21.8776 29.6875 22.7083V26.1974L43.75 24.249L44.4062 24.1583C45.3594 24.0375 46.2031 23.6297 46.875 23.0406C47.8438 22.2099 48.4375 21.0016 48.4375 19.6875V12.1354C48.4375 9.64323 46.3281 7.60417 43.75 7.60417ZM17.9688 7.60417L15.625 9.11458L16.5938 7.60417L17.7188 5.41406C17.9844 4.90052 18.5156 4.58333 19.125 4.58333H30.875C31.4844 4.58333 32.0156 4.90052 32.2812 5.41406L33.4062 7.60417H17.9688ZM29.6875 29.2484V31.7708C29.6875 32.6016 28.9844 33.2812 28.125 33.2812H21.875C21.0156 33.2812 20.3125 32.6016 20.3125 31.7708V29.2484L5.15625 27.149C4.45312 27.0583 3.76562 26.8771 3.125 26.5901V42.3438C3.125 44.8359 5.23438 46.875 7.8125 46.875H42.1875C44.7656 46.875 46.875 44.8359 46.875 42.3438V26.5901C46.2188 26.8771 45.5312 27.0583 44.8125 27.149L29.6875 29.2484ZM14.2234 44.2877C13.3344 44.3858 12.2969 44.4659 11.1859 44.5187C10.6297 44.5384 10.0562 44.5822 9.47187 44.5822C8.79844 44.6064 8.01094 44.4432 7.38437 44.0762C6.75 43.7061 6.2375 43.1548 5.91875 42.5265C5.58125 41.9223 5.51875 41.1264 5.56406 40.5917C5.62031 39.5178 5.70312 38.5148 5.80312 37.6554C5.98906 35.9381 6.25 34.7917 6.25 34.7917C6.25 34.7917 6.51094 35.9381 6.69687 37.6569C6.79687 38.5164 6.88125 39.5193 6.93594 40.5932C6.94531 41.1309 7.05156 41.4662 7.26094 41.868C7.46719 42.2441 7.79219 42.5718 8.18125 42.7803C8.56719 43.0098 8.98125 43.1231 9.47187 43.1246C10.0547 43.1246 10.6297 43.1699 11.1859 43.1881C12.2969 43.2409 13.3344 43.3225 14.2234 43.4192C16.0016 43.6004 17.1875 43.8542 17.1875 43.8542C17.1875 43.8542 16.0016 44.1079 14.2234 44.2877Z" fill="white"/>
</svg>
