<svg width="28" height="27" viewBox="0 0 28 27" fill="none" xmlns="http://www.w3.org/2000/svg">
<path d="M24.5 4.25833H20.6675L19.6438 2.27908C19.1975 1.41633 18.2962 0.875 17.29 0.875H10.71C9.70375 0.875 8.8025 1.41633 8.35625 2.27908L7.3325 4.25833H3.5C2.05625 4.25833 0.875 5.40021 0.875 6.79583V11.025C0.875 11.7609 1.2075 12.4375 1.75 12.9028C2.12625 13.2326 2.59875 13.461 3.1325 13.5287L3.5 13.5794L11.375 14.6705V12.7167C11.375 12.2515 11.7688 11.8708 12.25 11.8708H15.75C16.2312 11.8708 16.625 12.2515 16.625 12.7167V14.6705L24.5 13.5794L24.8675 13.5287C25.4013 13.461 25.8738 13.2326 26.25 12.9028C26.7925 12.4375 27.125 11.7609 27.125 11.025V6.79583C27.125 5.40021 25.9438 4.25833 24.5 4.25833ZM10.0625 4.25833L8.75 5.10417L9.2925 4.25833L9.9225 3.03188C10.0712 2.74429 10.3687 2.56667 10.71 2.56667H17.29C17.6313 2.56667 17.9287 2.74429 18.0775 3.03188L18.7075 4.25833H10.0625ZM16.625 16.3791V17.7917C16.625 18.2569 16.2312 18.6375 15.75 18.6375H12.25C11.7688 18.6375 11.375 18.2569 11.375 17.7917V16.3791L2.8875 15.2034C2.49375 15.1527 2.10875 15.0512 1.75 14.8905V23.7125C1.75 25.1081 2.93125 26.25 4.375 26.25H23.625C25.0688 26.25 26.25 25.1081 26.25 23.7125V14.8905C25.8825 15.0512 25.4975 15.1527 25.095 15.2034L16.625 16.3791ZM7.96512 24.8011C7.46725 24.8561 6.88625 24.9009 6.26412 24.9305C5.95262 24.9415 5.6315 24.966 5.30425 24.966C4.92712 24.9796 4.48612 24.8882 4.13525 24.6827C3.78 24.4754 3.493 24.1667 3.3145 23.8148C3.1255 23.4765 3.0905 23.0308 3.11588 22.7313C3.14738 22.1299 3.19375 21.5683 3.24975 21.087C3.35387 20.1253 3.5 19.4833 3.5 19.4833C3.5 19.4833 3.64612 20.1253 3.75025 21.0879C3.80625 21.5692 3.8535 22.1308 3.88413 22.7322C3.88938 23.0333 3.94887 23.2211 4.06612 23.4461C4.18162 23.6567 4.36363 23.8402 4.5815 23.9569C4.79763 24.0855 5.0295 24.149 5.30425 24.1498C5.63062 24.1498 5.95262 24.1752 6.26412 24.1853C6.88625 24.2149 7.46725 24.2606 7.96512 24.3147C8.96087 24.4162 9.625 24.5583 9.625 24.5583C9.625 24.5583 8.96087 24.7004 7.96512 24.8011Z" fill="#8D8D8D"/>
</svg>
