<svg width="20" height="21" viewBox="0 0 20 21" fill="none" xmlns="http://www.w3.org/2000/svg">
<path d="M20 16.125V19.2551C20 19.5853 19.8688 19.9019 19.6354 20.1354C19.4019 20.3688 19.0853 20.5 18.7551 20.5H18.7449C18.4147 20.5 18.0981 20.3688 17.8646 20.1354C17.6312 19.9019 17.5 19.5853 17.5 19.2551V16.125H20ZM2.5 1.74492V4.875H0V1.74492C0 1.41475 0.131161 1.0981 0.364629 0.864629C0.598097 0.631161 0.914748 0.5 1.24492 0.5L1.25508 0.5C1.58525 0.5 1.9019 0.631161 2.13537 0.864629C2.36884 1.0981 2.5 1.41475 2.5 1.74492Z" fill="#8D8D8D"/>
<path d="M18.7447 20.5H4.1666C3.9477 20.5001 3.73093 20.457 3.52869 20.3732C3.32644 20.2895 3.14267 20.1667 2.98788 20.0119C2.8331 19.8571 2.71032 19.6734 2.62658 19.4711C2.54283 19.2689 2.49975 19.0521 2.4998 18.8332V1.74492C2.4998 1.41475 2.36864 1.0981 2.13518 0.864629C1.90171 0.631161 1.58506 0.5 1.25488 0.5H15.833C16.0519 0.499949 16.2687 0.543027 16.4709 0.626773C16.6732 0.710519 16.8569 0.833292 17.0117 0.988079C17.1665 1.14287 17.2893 1.32663 17.373 1.52888C17.4568 1.73113 17.4999 1.9479 17.4998 2.1668V19.2551C17.4998 19.5853 17.631 19.9019 17.8644 20.1354C18.0979 20.3688 18.4146 20.5 18.7447 20.5Z" fill="#8D8D8D"/>
<path d="M15.0002 3.62246H10.0002C9.83516 3.62246 9.67688 3.5569 9.56019 3.4402C9.44349 3.32351 9.37793 3.16523 9.37793 3.0002C9.37793 2.83516 9.44349 2.67688 9.56019 2.56019C9.67688 2.44349 9.83516 2.37793 10.0002 2.37793H15.0002C15.1652 2.37793 15.3235 2.44349 15.4402 2.56019C15.5569 2.67688 15.6225 2.83516 15.6225 3.0002C15.6225 3.16523 15.5569 3.32351 15.4402 3.4402C15.3235 3.5569 15.1652 3.62246 15.0002 3.62246ZM15.0002 6.12246H10.0002C9.83516 6.12246 9.67688 6.0569 9.56019 5.9402C9.44349 5.82351 9.37793 5.66523 9.37793 5.5002C9.37793 5.33516 9.44349 5.17688 9.56019 5.06019C9.67688 4.94349 9.83516 4.87793 10.0002 4.87793H15.0002C15.1652 4.87793 15.3235 4.94349 15.4402 5.06019C15.5569 5.17688 15.6225 5.33516 15.6225 5.5002C15.6225 5.66523 15.5569 5.82351 15.4402 5.9402C15.3235 6.0569 15.1652 6.12246 15.0002 6.12246ZM15.0002 8.62246H10.0002C9.83516 8.62246 9.67688 8.5569 9.56019 8.4402C9.44349 8.32351 9.37793 8.16523 9.37793 8.0002C9.37793 7.83516 9.44349 7.67689 9.56019 7.56019C9.67688 7.44349 9.83516 7.37793 10.0002 7.37793H15.0002C15.1652 7.37793 15.3235 7.44349 15.4402 7.56019C15.5569 7.67689 15.6225 7.83516 15.6225 8.0002C15.6225 8.16523 15.5569 8.32351 15.4402 8.4402C15.3235 8.5569 15.1652 8.62246 15.0002 8.62246ZM15.0002 11.1225H10.0002C9.83516 11.1225 9.67688 11.0569 9.56019 10.9402C9.44349 10.8235 9.37793 10.6652 9.37793 10.5002C9.37793 10.3352 9.44349 10.1769 9.56019 10.0602C9.67688 9.94349 9.83516 9.87793 10.0002 9.87793H15.0002C15.1652 9.87793 15.3235 9.94349 15.4402 10.0602C15.5569 10.1769 15.6225 10.3352 15.6225 10.5002C15.6225 10.6652 15.5569 10.8235 15.4402 10.9402C15.3235 11.0569 15.1652 11.1225 15.0002 11.1225ZM15.0002 13.6225H10.0002C9.83516 13.6225 9.67688 13.5569 9.56019 13.4402C9.44349 13.3235 9.37793 13.1652 9.37793 13.0002C9.37793 12.8352 9.44349 12.6769 9.56019 12.5602C9.67688 12.4435 9.83516 12.3779 10.0002 12.3779H15.0002C15.1652 12.3779 15.3235 12.4435 15.4402 12.5602C15.5569 12.6769 15.6225 12.8352 15.6225 13.0002C15.6225 13.1652 15.5569 13.3235 15.4402 13.4402C15.3235 13.5569 15.1652 13.6225 15.0002 13.6225ZM15.0002 16.1225H10.0002C9.83516 16.1225 9.67688 16.0569 9.56019 15.9402C9.44349 15.8235 9.37793 15.6652 9.37793 15.5002C9.37793 15.3352 9.44349 15.1769 9.56019 15.0602C9.67688 14.9435 9.83516 14.8779 10.0002 14.8779H15.0002C15.1652 14.8779 15.3235 14.9435 15.4402 15.0602C15.5569 15.1769 15.6225 15.3352 15.6225 15.5002C15.6225 15.6652 15.5569 15.8235 15.4402 15.9402C15.3235 16.0569 15.1652 16.1225 15.0002 16.1225ZM15.0002 18.6225H10.0002C9.83516 18.6225 9.67688 18.5569 9.56019 18.4402C9.44349 18.3235 9.37793 18.1652 9.37793 18.0002C9.37793 17.8352 9.44349 17.6769 9.56019 17.5602C9.67688 17.4435 9.83516 17.3779 10.0002 17.3779H15.0002C15.1652 17.3779 15.3235 17.4435 15.4402 17.5602C15.5569 17.6769 15.6225 17.8352 15.6225 18.0002C15.6225 18.1652 15.5569 18.3235 15.4402 18.4402C15.3235 18.5569 15.1652 18.6225 15.0002 18.6225Z" fill="black" fill-opacity="0.2"/>
</svg>
