<svg width="40" height="40" viewBox="0 0 40 40" fill="none" xmlns="http://www.w3.org/2000/svg">
<g clip-path="url(#clip0_4755_6810)">
<path d="M36 29V34.0081C36 34.5364 35.7901 35.043 35.4166 35.4166C35.043 35.7901 34.5364 36 34.0081 36H33.9919C33.4636 36 32.957 35.7901 32.5834 35.4166C32.2099 35.043 32 34.5364 32 34.0081V29H36ZM8 5.99188V11H4V5.99188C4 5.4636 4.20986 4.95696 4.58341 4.58341C4.95696 4.20986 5.4636 4 5.99188 4H6.00813C6.5364 4 7.04304 4.20986 7.41659 4.58341C7.79014 4.95696 8 5.4636 8 5.99188Z" fill="#9DACAC"/>
<path d="M33.9916 36H10.6666C10.3163 36.0001 9.96949 35.9312 9.6459 35.7972C9.3223 35.6632 9.02827 35.4667 8.78061 35.2191C8.53296 34.9714 8.33652 34.6774 8.20252 34.3538C8.06853 34.0302 7.99961 33.6834 7.99969 33.3331V5.99188C7.99969 5.4636 7.78983 4.95696 7.41628 4.58341C7.04273 4.20986 6.53609 4 6.00781 4H29.3328C29.6831 3.99992 30.0299 4.06884 30.3535 4.20284C30.6771 4.33683 30.9711 4.53327 31.2188 4.78093C31.4664 5.02859 31.6629 5.32261 31.7969 5.64621C31.9308 5.96981 31.9998 6.31663 31.9997 6.66687V34.0081C31.9997 34.5364 32.2095 35.043 32.5831 35.4166C32.9566 35.7901 33.4633 36 33.9916 36Z" fill="white"/>
<path d="M13.0005 12.4244C12.8584 12.4246 12.718 12.3944 12.5886 12.3357C12.4592 12.2771 12.3439 12.1914 12.2505 12.0844L11.2505 10.9419C11.0764 10.743 10.9885 10.4831 11.0061 10.2193C11.0237 9.95561 11.1453 9.70967 11.3442 9.53562C11.5431 9.36157 11.8031 9.27367 12.0668 9.29125C12.3305 9.30883 12.5764 9.43046 12.7505 9.62937L13.0005 9.91562L15.2505 7.34375C15.4245 7.14483 15.6705 7.02321 15.9342 7.00563C16.1979 6.98805 16.4578 7.07595 16.6567 7.25C16.8556 7.42404 16.9773 7.66998 16.9949 7.9337C17.0124 8.19743 16.9245 8.45733 16.7505 8.65625L13.7505 12.085C13.6569 12.1917 13.5415 12.2772 13.4122 12.3358C13.2828 12.3943 13.1425 12.4245 13.0005 12.4244ZM13.0005 19.2819C12.8585 19.2816 12.7181 19.2511 12.5888 19.1924C12.4595 19.1336 12.3441 19.048 12.2505 18.9412L11.2505 17.7981C11.1643 17.6996 11.0984 17.5851 11.0564 17.4612C11.0145 17.3372 10.9974 17.2062 11.0061 17.0756C11.0237 16.8119 11.1453 16.5659 11.3442 16.3919C11.5431 16.2178 11.8031 16.1299 12.0668 16.1475C12.3305 16.1651 12.5764 16.2867 12.7505 16.4856L13.0005 16.7719L15.2505 14.2006C15.4245 14.0017 15.6705 13.8801 15.9342 13.8625C16.1979 13.8449 16.4578 13.9328 16.6567 14.1069C16.8556 14.2809 16.9773 14.5269 16.9949 14.7906C17.0124 15.0543 16.9245 15.3142 16.7505 15.5131L13.7505 18.9419C13.6568 19.0485 13.5414 19.134 13.4121 19.1927C13.2828 19.2513 13.1425 19.2817 13.0005 19.2819ZM13.0005 32.9956C12.8584 32.9958 12.718 32.9656 12.5886 32.907C12.4592 32.8483 12.3439 32.7626 12.2505 32.6556L11.2505 31.5131C11.0764 31.3142 10.9885 31.0543 11.0061 30.7906C11.0237 30.5269 11.1453 30.2809 11.3442 30.1069C11.5431 29.9328 11.8031 29.8449 12.0668 29.8625C12.3305 29.8801 12.5764 30.0017 12.7505 30.2006L13.0005 30.4862L15.2505 27.9144C15.4245 27.7155 15.6705 27.5938 15.9342 27.5763C16.1979 27.5587 16.4578 27.6466 16.6567 27.8206C16.8556 27.9947 16.9773 28.2406 16.9949 28.5043C17.0124 28.7681 16.9245 29.028 16.7505 29.2269L13.7505 32.655C13.657 32.762 13.5417 32.8477 13.4123 32.9065C13.283 32.9652 13.1426 32.9956 13.0005 32.9956ZM13.0005 26.1387C12.8584 26.1389 12.7179 26.1085 12.5886 26.0497C12.4592 25.991 12.3439 25.9052 12.2505 25.7981L11.2505 24.6556C11.1643 24.5571 11.0984 24.4426 11.0564 24.3187C11.0145 24.1947 10.9974 24.0637 11.0061 23.9331C11.0237 23.6694 11.1453 23.4234 11.3442 23.2494C11.5431 23.0753 11.8031 22.9874 12.0668 23.005C12.3305 23.0226 12.5764 23.1442 12.7505 23.3431L13.0005 23.6294L15.2505 21.0569C15.4245 20.858 15.6705 20.7363 15.9342 20.7188C16.1979 20.7012 16.4578 20.7891 16.6567 20.9631C16.8556 21.1372 16.9773 21.3831 16.9949 21.6468C17.0124 21.9106 16.9245 22.1705 16.7505 22.3694L13.7505 25.7975C13.6569 25.9044 13.5416 25.9901 13.4123 26.049C13.2829 26.1078 13.1426 26.1384 13.0005 26.1387Z" fill="#00B5B4"/>
<path d="M27.9995 8.99564H19.9995C19.7355 8.99564 19.4822 8.89075 19.2955 8.70403C19.1088 8.51732 19.0039 8.26408 19.0039 8.00002C19.0039 7.73596 19.1088 7.48272 19.2955 7.29601C19.4822 7.10929 19.7355 7.00439 19.9995 7.00439H27.9995C28.2636 7.00439 28.5168 7.10929 28.7035 7.29601C28.8903 7.48272 28.9952 7.73596 28.9952 8.00002C28.9952 8.26408 28.8903 8.51732 28.7035 8.70403C28.5168 8.89075 28.2636 8.99564 27.9995 8.99564ZM27.9995 12.9956H19.9995C19.7355 12.9956 19.4822 12.8907 19.2955 12.704C19.1088 12.5173 19.0039 12.2641 19.0039 12C19.0039 11.736 19.1088 11.4827 19.2955 11.296C19.4822 11.1093 19.7355 11.0044 19.9995 11.0044H27.9995C28.2636 11.0044 28.5168 11.1093 28.7035 11.296C28.8903 11.4827 28.9952 11.736 28.9952 12C28.9952 12.2641 28.8903 12.5173 28.7035 12.704C28.5168 12.8907 28.2636 12.9956 27.9995 12.9956ZM27.9995 16.9956H19.9995C19.7355 16.9956 19.4822 16.8907 19.2955 16.704C19.1088 16.5173 19.0039 16.2641 19.0039 16C19.0039 15.736 19.1088 15.4827 19.2955 15.296C19.4822 15.1093 19.7355 15.0044 19.9995 15.0044H27.9995C28.2636 15.0044 28.5168 15.1093 28.7035 15.296C28.8903 15.4827 28.9952 15.736 28.9952 16C28.9952 16.2641 28.8903 16.5173 28.7035 16.704C28.5168 16.8907 28.2636 16.9956 27.9995 16.9956ZM27.9995 20.9956H19.9995C19.7355 20.9956 19.4822 20.8908 19.2955 20.704C19.1088 20.5173 19.0039 20.2641 19.0039 20C19.0039 19.736 19.1088 19.4827 19.2955 19.296C19.4822 19.1093 19.7355 19.0044 19.9995 19.0044H27.9995C28.2636 19.0044 28.5168 19.1093 28.7035 19.296C28.8903 19.4827 28.9952 19.736 28.9952 20C28.9952 20.2641 28.8903 20.5173 28.7035 20.704C28.5168 20.8908 28.2636 20.9956 27.9995 20.9956ZM27.9995 24.9956H19.9995C19.7355 24.9956 19.4822 24.8908 19.2955 24.704C19.1088 24.5173 19.0039 24.2641 19.0039 24C19.0039 23.736 19.1088 23.4827 19.2955 23.296C19.4822 23.1093 19.7355 23.0044 19.9995 23.0044H27.9995C28.2636 23.0044 28.5168 23.1093 28.7035 23.296C28.8903 23.4827 28.9952 23.736 28.9952 24C28.9952 24.2641 28.8903 24.5173 28.7035 24.704C28.5168 24.8908 28.2636 24.9956 27.9995 24.9956ZM27.9995 28.9956H19.9995C19.7355 28.9956 19.4822 28.8908 19.2955 28.704C19.1088 28.5173 19.0039 28.2641 19.0039 28C19.0039 27.736 19.1088 27.4827 19.2955 27.296C19.4822 27.1093 19.7355 27.0044 19.9995 27.0044H27.9995C28.2636 27.0044 28.5168 27.1093 28.7035 27.296C28.8903 27.4827 28.9952 27.736 28.9952 28C28.9952 28.2641 28.8903 28.5173 28.7035 28.704C28.5168 28.8908 28.2636 28.9956 27.9995 28.9956ZM27.9995 32.9956H19.9995C19.7355 32.9956 19.4822 32.8908 19.2955 32.704C19.1088 32.5173 19.0039 32.2641 19.0039 32C19.0039 31.736 19.1088 31.4827 19.2955 31.296C19.4822 31.1093 19.7355 31.0044 19.9995 31.0044H27.9995C28.2636 31.0044 28.5168 31.1093 28.7035 31.296C28.8903 31.4827 28.9952 31.736 28.9952 32C28.9952 32.2641 28.8903 32.5173 28.7035 32.704C28.5168 32.8908 28.2636 32.9956 27.9995 32.9956Z" fill="black" fill-opacity="0.2"/>
</g>
<defs>
<clipPath id="clip0_4755_6810">
<rect width="32" height="32" fill="white" transform="translate(4 4)"/>
</clipPath>
</defs>
</svg>
