<svg width="20" height="20" viewBox="0 0 20 20" fill="none" xmlns="http://www.w3.org/2000/svg">
<path d="M5.83337 6.66732C5.83337 6.20708 6.20647 5.83398 6.66671 5.83398H13.3334C13.7936 5.83398 14.1667 6.20708 14.1667 6.66732C14.1667 7.12755 13.7936 7.50065 13.3334 7.50065H6.66671C6.20647 7.50065 5.83337 7.12755 5.83337 6.66732Z" fill="#646464"/>
<path d="M6.66671 9.16732C6.20647 9.16732 5.83337 9.54041 5.83337 10.0007C5.83337 10.4609 6.20647 10.834 6.66671 10.834H10C10.4603 10.834 10.8334 10.4609 10.8334 10.0007C10.8334 9.54041 10.4603 9.16732 10 9.16732H6.66671Z" fill="#646464"/>
<path fill-rule="evenodd" clip-rule="evenodd" d="M2.39528 3.25221C3.77577 1.68347 6.15771 0.833984 10 0.833984C13.8424 0.833984 16.2243 1.68347 17.6048 3.25221C18.9699 4.80341 19.1667 6.8572 19.1667 8.75065C19.1667 10.6445 18.9673 12.6542 17.8625 14.18C16.7693 15.69 14.9324 16.5495 12.1199 16.6071L10.6982 18.7889C10.5444 19.025 10.2818 19.1673 10 19.1673C9.7183 19.1673 9.45564 19.025 9.30184 18.7889L7.87743 16.6028C5.06684 16.52 3.23178 15.6612 2.13886 14.1601C1.03285 12.6411 0.833374 10.6449 0.833374 8.75065C0.833374 6.8572 1.03022 4.80341 2.39528 3.25221ZM3.64647 4.35326C2.71986 5.40622 2.50004 6.8941 2.50004 8.75065C2.50004 10.6064 2.71723 12.1229 3.48622 13.1791C4.21028 14.1736 5.56963 14.9427 8.33337 14.9427H8.78502L10 16.8075L11.218 14.9382L11.675 14.9428C14.4338 14.9702 15.7895 14.2013 16.5126 13.2026C17.2828 12.1387 17.5 10.6068 17.5 8.75065C17.5 6.8941 17.2802 5.40622 16.3536 4.35326C15.4424 3.31783 13.6577 2.50065 10 2.50065C6.34237 2.50065 4.55764 3.31783 3.64647 4.35326Z" fill="#646464"/>
</svg>
