<svg width="20" height="20" viewBox="0 0 20 20" fill="none" xmlns="http://www.w3.org/2000/svg">
<path d="M10.8333 4.16667C10.8333 3.70643 10.4602 3.33333 10 3.33333C9.53976 3.33333 9.16667 3.70643 9.16667 4.16667V10C9.16667 10.221 9.25446 10.433 9.41074 10.5893L12.3274 13.5059C12.6528 13.8314 13.1805 13.8314 13.5059 13.5059C13.8314 13.1805 13.8314 12.6528 13.5059 12.3274L10.8333 9.65482V4.16667Z" fill="#646464"/>
<path fill-rule="evenodd" clip-rule="evenodd" d="M10 0C4.47715 0 0 4.47715 0 10C0 15.5228 4.47715 20 10 20C15.5228 20 20 15.5228 20 10C20 4.47715 15.5228 0 10 0ZM1.66667 10C1.66667 5.39763 5.39763 1.66667 10 1.66667C14.6024 1.66667 18.3333 5.39763 18.3333 10C18.3333 14.6024 14.6024 18.3333 10 18.3333C5.39763 18.3333 1.66667 14.6024 1.66667 10Z" fill="#646464"/>
</svg>
