<svg width="20" height="18" viewBox="0 0 20 18" fill="none" xmlns="http://www.w3.org/2000/svg">
<path fill-rule="evenodd" clip-rule="evenodd" d="M5.1061 2.36816C3.74074 2.57531 2.50004 3.72215 2.50004 5.85678C2.50004 6.8944 2.93353 8.03173 3.67287 9.19949C4.40682 10.3587 5.39948 11.4808 6.41508 12.4709C7.42759 13.458 8.44341 14.295 9.20775 14.8861C9.52125 15.1285 9.79132 15.3287 10 15.48C10.2088 15.3287 10.4788 15.1285 10.7923 14.8861C11.5567 14.295 12.5725 13.458 13.585 12.4709C14.6006 11.4808 15.5933 10.3587 16.3272 9.19949C17.0665 8.03173 17.5 6.8944 17.5 5.85678C17.5 3.72215 16.2593 2.57531 14.894 2.36816C13.5075 2.15781 11.7584 2.88762 10.7571 5.06466C10.6211 5.36033 10.3255 5.54978 10 5.54978C9.6746 5.54978 9.37894 5.36033 9.24295 5.06466C8.24164 2.88762 6.49263 2.15781 5.1061 2.36816ZM10 16.4998L10.4651 17.1913C10.1839 17.3804 9.81617 17.3804 9.53497 17.1913L10 16.4998ZM10 3.07054C8.65409 1.22812 6.6848 0.442915 4.8561 0.720354C2.62298 1.05915 0.833374 2.95315 0.833374 5.85678C0.833374 7.33828 1.44155 8.7909 2.26471 10.091C3.09326 11.3997 4.18393 12.6234 5.25166 13.6643C6.32249 14.7082 7.39 15.5873 8.18817 16.2045C8.58793 16.5137 8.9218 16.7584 9.15694 16.9268C9.27455 17.0109 9.36758 17.0761 9.43192 17.1206C9.46409 17.1429 9.48911 17.1601 9.50645 17.1719L9.52665 17.1856L9.53232 17.1895L9.53497 17.1913C9.53497 17.1913 9.53497 17.1913 10 16.4998C10.4651 17.1913 10.4651 17.1913 10.4651 17.1913L10.4678 17.1895L10.4734 17.1856L10.4936 17.1719C10.511 17.1601 10.536 17.1429 10.5682 17.1206C10.6325 17.0761 10.7255 17.0109 10.8431 16.9268C11.0783 16.7584 11.4122 16.5137 11.8119 16.2045C12.6101 15.5873 13.6776 14.7082 14.7484 13.6643C15.8162 12.6234 16.9068 11.3997 17.7354 10.091C18.5585 8.7909 19.1667 7.33828 19.1667 5.85678C19.1667 2.95315 17.3771 1.05915 15.144 0.720354C13.3153 0.442915 11.346 1.22812 10 3.07054Z" fill="#646464"/>
</svg>
