<svg width="17" height="17" viewBox="0 0 17 17" fill="none" xmlns="http://www.w3.org/2000/svg">
<path fill-rule="evenodd" clip-rule="evenodd" d="M8.22222 0C5.98852 0 5.71033 0.00959259 4.83193 0.0507037C1.84452 0.187741 0.18637 1.84452 0.0493333 4.83193C0.00959259 5.71033 0 5.98989 0 8.22222C0 10.4559 0.00959259 10.7355 0.0493333 11.6125C0.18637 14.5986 1.84452 16.2581 4.83193 16.3951C5.71033 16.4349 5.98852 16.4444 8.22222 16.4444C10.4559 16.4444 10.7355 16.4349 11.6139 16.3951C14.5958 16.2581 16.2608 14.6013 16.3951 11.6125C16.4349 10.7355 16.4444 10.4559 16.4444 8.22222C16.4444 5.98989 16.4349 5.71033 16.3951 4.83193C16.2608 1.84863 14.6013 0.18637 11.6139 0.0507037C10.7355 0.00959259 10.4559 0 8.22222 0ZM8.22132 1.48438C10.4167 1.48438 10.677 1.4926 11.5445 1.53234C13.7741 1.63375 14.8128 2.6903 14.9156 4.90208C14.9539 5.76952 14.9622 6.02852 14.9622 8.22386C14.9622 10.4192 14.9539 10.6796 14.9156 11.5456C14.8128 13.756 13.7754 14.8153 11.5445 14.9167C10.677 14.9551 10.418 14.9647 8.22132 14.9647C6.02599 14.9647 5.76562 14.9565 4.89954 14.9167C2.66584 14.814 1.63121 13.7533 1.52843 11.5456C1.49006 10.6796 1.48047 10.4192 1.48047 8.22386C1.48047 6.02852 1.49006 5.76815 1.52843 4.90208C1.62984 2.68893 2.66858 1.63238 4.89954 1.53097C5.76562 1.49123 6.02599 1.48438 8.22132 1.48438ZM4 8.22211C4 5.88974 5.89111 4 8.22211 4C10.5531 4 12.4442 5.89111 12.4442 8.22211C12.4442 10.5545 10.5531 12.4442 8.22211 12.4442C5.89111 12.4442 4 10.5545 4 8.22211ZM8.22219 10.962C6.70793 10.962 5.48145 9.73547 5.48145 8.22121C5.48145 6.70832 6.70793 5.48047 8.22219 5.48047C9.73507 5.48047 10.9643 6.70695 10.9643 8.22121C10.9643 9.73547 9.73507 10.962 8.22219 10.962ZM11.6211 3.83432C11.6211 3.28892 12.0637 2.84766 12.6078 2.84766C13.1545 2.84766 13.5958 3.28892 13.5958 3.83432C13.5958 4.37973 13.1532 4.82099 12.6078 4.82099C12.0624 4.82099 11.6211 4.37836 11.6211 3.83432Z" fill="#1e1e1e"/>
</svg>
