<svg width="12" height="12" viewBox="0 0 12 12" fill="none" xmlns="http://www.w3.org/2000/svg">
<g clip-path="url(#clip0_114_4451)">
<path d="M11.9986 12.0001V11.9996H12.0016V7.59861C12.0016 5.44561 11.5381 3.78711 9.02109 3.78711C7.81109 3.78711 6.99909 4.45111 6.66759 5.08061H6.63259V3.98811H4.24609V11.9996H6.73109V8.03261C6.73109 6.98811 6.92909 5.97811 8.22259 5.97811C9.49709 5.97811 9.51609 7.17011 9.51609 8.0996V12.0001H11.9986Z" fill="#252F44"/>
<path d="M0.199219 3.98828H2.68722V11.9998H0.199219V3.98828Z" fill="#252F44"/>
<path d="M1.441 0C0.6455 0 0 0.6455 0 1.441C0 2.2365 0.6455 2.8955 1.441 2.8955C2.2365 2.8955 2.882 2.2365 2.882 1.441C2.8815 0.6455 2.236 0 1.441 0V0Z" fill="#252F44"/>
</g>
<defs>
<clipPath id="clip0_114_4451">
<rect width="12" height="12" fill="white"/>
</clipPath>
</defs>
</svg>
