<svg width="10" height="13" viewBox="0 0 10 13" fill="none" xmlns="http://www.w3.org/2000/svg">
<path d="M1.25583 12.9715H3.0262C3.74188 12.9715 4.11102 12.6024 4.11102 11.8867V1.52061C4.11102 0.789865 3.74188 0.443324 3.0262 0.435791H1.25583C0.540152 0.435791 0.171011 0.804932 0.171011 1.52061V11.8867C0.163478 12.6024 0.532619 12.9715 1.25583 12.9715ZM6.98128 12.9715H8.74411C9.45979 12.9715 9.82894 12.6024 9.82894 11.8867V1.52061C9.82894 0.789865 9.45979 0.435791 8.74411 0.435791H6.98128C6.25807 0.435791 5.89646 0.804932 5.89646 1.52061V11.8867C5.89646 12.6024 6.25807 12.9715 6.98128 12.9715Z" fill="#252525"/>
</svg>
