<svg width="20" height="16" viewBox="0 0 20 16" fill="none" xmlns="http://www.w3.org/2000/svg">
<path d="M0.777346 13.7983C2.54516 14.9201 4.60256 15.5128 6.7268 15.5128C9.83757 15.5128 12.6882 14.3178 14.7543 12.1483C16.7314 10.0718 17.819 7.28161 17.7649 4.4501C18.5143 3.80885 19.3958 2.58443 19.3958 1.39104C19.3958 0.933571 18.8994 0.643179 18.4968 0.876288C17.7927 1.29 17.1507 1.3982 16.4903 1.21282C15.1418 -0.101496 13.1345 -0.378363 11.4431 0.533388C9.96486 1.32898 9.14302 2.78492 9.21701 4.37611C6.71964 4.07139 4.41241 2.81913 2.80372 0.873106C2.53959 0.555664 2.03836 0.593057 1.82833 0.952666C1.05342 2.27972 1.06137 3.8176 1.73524 5.05952C1.41462 5.11601 1.21651 5.38571 1.21651 5.6777C1.21651 6.92598 1.7782 8.07323 2.68279 8.8561C2.51413 9.0184 2.45844 9.25946 2.53004 9.47427C2.92784 10.6693 3.82845 11.6033 4.95421 12.0711C3.7298 12.6559 2.37569 12.8508 1.17037 12.7028C0.546624 12.6185 0.238729 13.457 0.777346 13.7983ZM6.88989 12.2756C7.33622 11.9327 7.09914 11.2182 6.53904 11.2063C5.5525 11.1856 4.65428 10.6995 4.09497 9.93492C4.36468 9.91742 4.64393 9.87605 4.90966 9.80444C5.51511 9.64055 5.48647 8.76699 4.87147 8.64367C3.75525 8.41932 2.87931 7.60622 2.55072 6.55922C2.85066 6.63321 3.15617 6.67458 3.46088 6.68015C4.06474 6.68333 4.29308 5.90922 3.8006 5.58541C2.69075 4.85426 2.21737 3.56301 2.53084 2.34893C4.4689 4.31246 7.09834 5.49551 9.87973 5.62917C10.2783 5.65383 10.5775 5.27911 10.49 4.89961C10.112 3.26148 11.027 2.11344 12.0095 1.58437C12.9818 1.05928 14.5427 0.895383 15.7393 2.15083C16.0949 2.52555 17.2947 2.53988 17.9049 2.39746C17.6312 2.91301 17.2103 3.4023 16.8165 3.67757C16.6486 3.79532 16.5524 3.99104 16.5627 4.19551C16.6908 6.80903 15.717 9.40744 13.8911 11.324C12.0517 13.2549 9.50819 14.3186 6.72759 14.3186C5.62172 14.3186 4.53732 14.1388 3.5126 13.792C4.73781 13.5549 5.90177 13.0361 6.88989 12.2756Z" fill="#1e1e1e"/>
</svg>
